<svg width="64" height="64" viewBox="0 0 64 64" xmlns="http://www.w3.org/2000/svg">
  <!-- Base rock formation -->
  <ellipse cx="32" cy="50" rx="24" ry="12" fill="#4A4A4A"/>
  
  <!-- Main rock body with natural irregular shape -->
  <path d="M 15 45 Q 10 35 18 25 Q 25 15 35 12 Q 45 10 52 20 Q 55 30 50 40 Q 48 50 40 55 Q 30 58 20 55 Q 12 52 15 45 Z" fill="#696969"/>
  
  <!-- Rock face variations -->
  <path d="M 18 25 Q 25 15 35 12 Q 40 15 42 22 Q 35 20 28 25 Q 22 30 18 25 Z" fill="#808080"/>
  <path d="M 42 22 Q 50 18 52 20 Q 55 30 50 40 Q 48 35 45 30 Q 42 25 42 22 Z" fill="#5A5A5A"/>
  
  <!-- Highlight areas (sunlit surfaces) -->
  <path d="M 25 18 Q 30 15 35 12 Q 32 16 28 20 Q 25 18 25 18 Z" fill="#B0B0B0"/>
  <path d="M 18 25 Q 22 22 28 25 Q 25 28 20 30 Q 18 25 18 25 Z" fill="#A0A0A0"/>
  
  <!-- Deep shadows and crevices -->
  <path d="M 35 25 Q 40 30 45 35 Q 42 40 38 42 Q 35 38 35 32 Q 35 25 35 25 Z" fill="#2F2F2F"/>
  <path d="M 28 40 Q 32 45 38 48 Q 35 52 30 50 Q 25 48 28 40 Z" fill="#3A3A3A"/>
  
  <!-- Surface texture and details -->
  <ellipse cx="25" cy="30" rx="3" ry="2" fill="#5A5A5A" transform="rotate(15 25 30)"/>
  <ellipse cx="42" cy="35" rx="2" ry="3" fill="#5A5A5A" transform="rotate(-20 42 35)"/>
  <ellipse cx="35" cy="45" rx="2.5" ry="1.5" fill="#5A5A5A" transform="rotate(30 35 45)"/>
  
  <!-- Moss and weathering -->
  <ellipse cx="20" cy="35" rx="2" ry="1" fill="#556B2F" opacity="0.6"/>
  <ellipse cx="45" cy="42" rx="1.5" ry="1" fill="#556B2F" opacity="0.4"/>
  
  <!-- Small rock debris -->
  <circle cx="12" cy="52" r="1.5" fill="#696969"/>
  <circle cx="52" cy="55" r="1" fill="#696969"/>
  <circle cx="48" cy="58" r="0.8" fill="#696969"/>
</svg>