<svg width="64" height="64" viewBox="0 0 64 64" xmlns="http://www.w3.org/2000/svg">
  <!-- Dragon body -->
  <ellipse cx="32" cy="40" rx="18" ry="12" fill="#8B0000"/>
  
  <!-- Dragon head -->
  <ellipse cx="32" cy="24" rx="12" ry="10" fill="#DC143C"/>
  
  <!-- Dragon snout -->
  <ellipse cx="32" cy="18" rx="6" ry="4" fill="#B22222"/>
  
  <!-- Wings -->
  <ellipse cx="20" cy="32" rx="8" ry="16" fill="#8B0000" opacity="0.8" transform="rotate(-30 20 32)"/>
  <ellipse cx="44" cy="32" rx="8" ry="16" fill="#8B0000" opacity="0.8" transform="rotate(30 44 32)"/>
  
  <!-- Wing membranes -->
  <ellipse cx="20" cy="32" rx="6" ry="12" fill="#FF6347" opacity="0.6" transform="rotate(-30 20 32)"/>
  <ellipse cx="44" cy="32" rx="6" ry="12" fill="#FF6347" opacity="0.6" transform="rotate(30 44 32)"/>
  
  <!-- Eyes -->
  <circle cx="28" cy="22" r="3" fill="#FFD700"/>
  <circle cx="36" cy="22" r="3" fill="#FFD700"/>
  <circle cx="28" cy="22" r="1.5" fill="#000"/>
  <circle cx="36" cy="22" r="1.5" fill="#000"/>
  
  <!-- Nostrils -->
  <ellipse cx="30" cy="16" rx="1" ry="2" fill="#000"/>
  <ellipse cx="34" cy="16" rx="1" ry="2" fill="#000"/>
  
  <!-- Horns -->
  <polygon points="26,14 24,8 28,10" fill="#2F4F4F"/>
  <polygon points="38,14 40,8 36,10" fill="#2F4F4F"/>
  
  <!-- Spikes on back -->
  <polygon points="32,28 30,24 34,24" fill="#2F4F4F"/>
  <polygon points="28,32 26,28 30,28" fill="#2F4F4F"/>
  <polygon points="36,32 38,28 34,28" fill="#2F4F4F"/>
  
  <!-- Tail -->
  <ellipse cx="48" cy="48" rx="8" ry="4" fill="#8B0000" transform="rotate(45 48 48)"/>
  <polygon points="52,52 56,48 54,54" fill="#2F4F4F"/>
  
  <!-- Legs -->
  <ellipse cx="22" cy="50" rx="4" ry="6" fill="#8B0000"/>
  <ellipse cx="42" cy="50" rx="4" ry="6" fill="#8B0000"/>
  
  <!-- Claws -->
  <polygon points="20,56 18,60 22,58" fill="#2F4F4F"/>
  <polygon points="24,56 22,60 26,58" fill="#2F4F4F"/>
  <polygon points="40,56 38,60 42,58" fill="#2F4F4F"/>
  <polygon points="44,56 42,60 46,58" fill="#2F4F4F"/>
</svg>