<svg width="32" height="32" viewBox="0 0 32 32" xmlns="http://www.w3.org/2000/svg">
  <!-- Orc body -->
  <ellipse cx="16" cy="22" rx="10" ry="8" fill="#556B2F"/>
  
  <!-- Orc head -->
  <circle cx="16" cy="14" r="8" fill="#6B8E23"/>
  
  <!-- Tusks -->
  <polygon points="12,16 10,20 14,18" fill="#FFFACD"/>
  <polygon points="20,16 22,20 18,18" fill="#FFFACD"/>
  
  <!-- Eyes -->
  <circle cx="12" cy="12" r="2" fill="#FF4500"/>
  <circle cx="20" cy="12" r="2" fill="#FF4500"/>
  <circle cx="12" cy="12" r="1" fill="#000"/>
  <circle cx="20" cy="12" r="1" fill="#000"/>
  
  <!-- Nose -->
  <ellipse cx="16" cy="15" rx="1" ry="2" fill="#556B2F"/>
  
  <!-- Mouth -->
  <path d="M 12 18 Q 16 20 20 18" stroke="#000" stroke-width="2" fill="none"/>
  
  <!-- Arms -->
  <ellipse cx="8" cy="20" rx="3" ry="6" fill="#556B2F"/>
  <ellipse cx="24" cy="20" rx="3" ry="6" fill="#556B2F"/>
  
  <!-- Legs -->
  <ellipse cx="12" cy="28" rx="3" ry="4" fill="#556B2F"/>
  <ellipse cx="20" cy="28" rx="3" ry="4" fill="#556B2F"/>
  
  <!-- Weapon (axe) -->
  <line x1="26" y1="18" x2="30" y2="14" stroke="#8B4513" stroke-width="3"/>
  <polygon points="28,10 32,14 28,18 30,14" fill="#C0C0C0"/>
</svg>