<svg width="80" height="80" viewBox="0 0 80 80" xmlns="http://www.w3.org/2000/svg">
  <!-- Colorful Kid-Friendly Target Tile -->
  <!-- Base tile with target gradient -->
  <rect width="80" height="80" rx="16" fill="url(#targetGradient)" stroke="#FF5722" stroke-width="4"/>
  
  <!-- Target rings -->
  <circle cx="40" cy="40" r="32" fill="none" stroke="#FF8A65" stroke-width="3" opacity="0.6"/>
  <circle cx="40" cy="40" r="26" fill="none" stroke="#FF7043" stroke-width="2" opacity="0.7"/>
  <circle cx="40" cy="40" r="20" fill="none" stroke="#FF5722" stroke-width="2" opacity="0.8"/>
  
  <!-- Center bullseye -->
  <circle cx="40" cy="40" r="16" fill="#FFFFFF" stroke="#FF5722" stroke-width="3"/>
  <circle cx="40" cy="40" r="10" fill="#FF5722" opacity="0.9"/>
  <circle cx="40" cy="40" r="6" fill="#FFFFFF"/>
  <circle cx="40" cy="40" r="3" fill="#FF5722"/>
  
  <!-- Target flag -->
  <g transform="translate(40,40)">
    <rect x="-1" y="-20" width="2" height="15" fill="#8BC34A"/>
    <path d="M1,-20 L12,-15 L1,-10 Z" fill="#FF5722"/>
    <path d="M1,-18 L10,-15 L1,-12 Z" fill="#FFFFFF" opacity="0.8"/>
  </g>
  
  <!-- Corner celebration elements -->
  <g opacity="0.8">
    <!-- Confetti -->
    <rect x="12" y="12" width="4" height="4" rx="1" fill="#FFD700" transform="rotate(45 14 14)"/>
    <rect x="64" y="12" width="4" height="4" rx="1" fill="#FF69B4" transform="rotate(45 66 14)"/>
    <rect x="12" y="64" width="4" height="4" rx="1" fill="#00BCD4" transform="rotate(45 14 66)"/>
    <rect x="64" y="64" width="4" height="4" rx="1" fill="#9C27B0" transform="rotate(45 66 66)"/>
    
    <!-- Stars -->
    <path d="M20 8 L22 12 L26 12 L23 15 L24 19 L20 17 L16 19 L17 15 L14 12 L18 12 Z" fill="#FFD700"/>
    <path d="M60 8 L62 12 L66 12 L63 15 L64 19 L60 17 L56 19 L57 15 L54 12 L58 12 Z" fill="#FF69B4"/>
    <path d="M20 72 L22 68 L26 68 L23 65 L24 61 L20 63 L16 61 L17 65 L14 68 L18 68 Z" fill="#00BCD4"/>
    <path d="M60 72 L62 68 L66 68 L63 65 L64 61 L60 63 L56 61 L57 65 L54 68 L58 68 Z" fill="#9C27B0"/>
  </g>
  
  <!-- Achievement rays -->
  <g opacity="0.4" stroke="#FFD700" stroke-width="2">
    <line x1="40" y1="8" x2="40" y2="16" stroke-linecap="round"/>
    <line x1="40" y1="64" x2="40" y2="72" stroke-linecap="round"/>
    <line x1="8" y1="40" x2="16" y2="40" stroke-linecap="round"/>
    <line x1="64" y1="40" x2="72" y2="40" stroke-linecap="round"/>
    <line x1="17" y1="17" x2="23" y2="23" stroke-linecap="round"/>
    <line x1="57" y1="17" x2="63" y2="23" stroke-linecap="round"/>
    <line x1="17" y1="63" x2="23" y2="57" stroke-linecap="round"/>
    <line x1="57" y1="63" x2="63" y2="57" stroke-linecap="round"/>
  </g>
  
  <!-- Pulsing success ring -->
  <circle cx="40" cy="40" r="35" fill="none" stroke="#4CAF50" stroke-width="2" opacity="0.5">
    <animate attributeName="r" values="35;38;35" dur="1.5s" repeatCount="indefinite"/>
    <animate attributeName="opacity" values="0.5;0.2;0.5" dur="1.5s" repeatCount="indefinite"/>
  </circle>
  
  <!-- Trophy sparkles -->
  <g opacity="0.6">
    <circle cx="28" cy="20" r="1" fill="#FFD700">
      <animate attributeName="opacity" values="0.6;1;0.6" dur="1s" repeatCount="indefinite"/>
    </circle>
    <circle cx="52" cy="20" r="1" fill="#FFD700">
      <animate attributeName="opacity" values="0.6;1;0.6" dur="1.2s" repeatCount="indefinite"/>
    </circle>
    <circle cx="28" cy="60" r="1" fill="#FFD700">
      <animate attributeName="opacity" values="0.6;1;0.6" dur="0.8s" repeatCount="indefinite"/>
    </circle>
    <circle cx="52" cy="60" r="1" fill="#FFD700">
      <animate attributeName="opacity" values="0.6;1;0.6" dur="1.4s" repeatCount="indefinite"/>
    </circle>
  </g>
  
  <defs>
    <radialGradient id="targetGradient" cx="50%" cy="30%" r="70%">
      <stop offset="0%" style="stop-color:#FFEBEE;stop-opacity:1" />
      <stop offset="50%" style="stop-color:#FFCDD2;stop-opacity:1" />
      <stop offset="100%" style="stop-color:#EF9A9A;stop-opacity:1" />
    </radialGradient>
  </defs>
</svg>