<svg width="48" height="48" viewBox="0 0 48 48" xmlns="http://www.w3.org/2000/svg">
  <!-- Enhanced Human Character - Walking Right Frame 1 -->
  <!-- Background for visibility -->
  <circle cx="24" cy="24" r="23" fill="#F0F8FF" stroke="#4A90E2" stroke-width="1" opacity="0.2"/>
  
  <!-- Head -->
  <ellipse cx="24" cy="15" rx="7" ry="8" fill="#FDBCB4" stroke="#E09F94" stroke-width="1"/>
  
  <!-- Hair (side view) -->
  <path d="M17 9 Q24 5 30 9 Q31 11 30 13 Q28 15 24 14 Q19 13 17 9" fill="#8B4513"/>
  
  <!-- Eye (side view) -->
  <circle cx="26" cy="14" r="1.5" fill="#FFFFFF"/>
  <circle cx="26" cy="14" r="1" fill="#4A90E2"/>
  <circle cx="26.3" cy="13.7" r="0.3" fill="#FFFFFF"/>
  
  <!-- Nose -->
  <path d="M30 15 Q31 16 30 17" stroke="#E09F94" stroke-width="0.8" fill="none"/>
  
  <!-- Mouth -->
  <path d="M28 17.5 Q29 18 28 18.5" stroke="#D0021B" stroke-width="0.8" fill="none"/>
  
  <!-- Body - Colorful shirt -->
  <rect x="16" y="23" width="16" height="16" rx="3" fill="#7ED321"/>
  <rect x="18" y="25" width="12" height="2" fill="#50E3C2"/>
  <rect x="18" y="29" width="12" height="2" fill="#F5A623"/>
  <rect x="18" y="33" width="12" height="2" fill="#BD10E0"/>
  
  <!-- Arms - Walking position -->
  <rect x="9" y="25" width="7" height="10" rx="3" fill="#FDBCB4" transform="rotate(-15 12.5 30)"/>
  <rect x="32" y="23" width="7" height="12" rx="3" fill="#FDBCB4" transform="rotate(20 35.5 29)"/>
  
  <!-- Hands -->
  <circle cx="11" cy="37" r="2.2" fill="#FDBCB4"/>
  <circle cx="37" cy="33" r="2.2" fill="#FDBCB4"/>
  
  <!-- Legs - Walking stride -->
  <rect x="18" y="39" width="4" height="8" rx="2" fill="#4A90E2" transform="rotate(10 20 43)"/>
  <rect x="26" y="39" width="4" height="8" rx="2" fill="#4A90E2" transform="rotate(-20 28 43)"/>
  
  <!-- Shoes -->
  <ellipse cx="19" cy="47" rx="3" ry="1.5" fill="#2C3E50" transform="rotate(10 19 47)"/>
  <ellipse cx="30" cy="46" rx="3" ry="1.5" fill="#2C3E50" transform="rotate(-20 30 46)"/>
  
  <!-- Walking dust effect -->
  <circle cx="16" cy="47" r="1" fill="#D2B48C" opacity="0.4"/>
  <circle cx="14" cy="46" r="0.5" fill="#D2B48C" opacity="0.3"/>
</svg>