<svg width="48" height="48" viewBox="0 0 48 48" xmlns="http://www.w3.org/2000/svg">
  <!-- Enhanced Human Character - Breathing Frame 1 -->
  <!-- Background for visibility -->
  <circle cx="24" cy="24" r="23" fill="#F0F8FF" stroke="#4A90E2" stroke-width="1" opacity="0.2"/>
  
  <!-- Head - slightly raised for breathing -->
  <circle cx="24" cy="14.5" r="8" fill="#FDBCB4" stroke="#E09F94" stroke-width="1"/>
  
  <!-- Hair -->
  <path d="M16 9.5 Q24 5.5 32 9.5 Q32 7.5 29 5.5 Q24 2.5 19 5.5 Q16 7.5 16 9.5" fill="#8B4513"/>
  <circle cx="19" cy="7.5" r="1.2" fill="#A0522D" opacity="0.7"/>
  <circle cx="29" cy="7.5" r="1.2" fill="#A0522D" opacity="0.7"/>
  
  <!-- Eyes - slightly closed for peaceful breathing -->
  <ellipse cx="20" cy="13.5" rx="1.8" ry="1.2" fill="#FFFFFF"/>
  <ellipse cx="28" cy="13.5" rx="1.8" ry="1.2" fill="#FFFFFF"/>
  <ellipse cx="20" cy="13.5" rx="1.1" ry="0.8" fill="#4A90E2"/>
  <ellipse cx="28" cy="13.5" rx="1.1" ry="0.8" fill="#4A90E2"/>
  <circle cx="20.4" cy="13.2" r="0.4" fill="#FFFFFF"/>
  <circle cx="28.4" cy="13.2" r="0.4" fill="#FFFFFF"/>
  
  <!-- Nose -->
  <ellipse cx="24" cy="15.5" rx="0.7" ry="1.2" fill="#F5A9A0"/>
  
  <!-- Mouth - slightly open for breathing -->
  <ellipse cx="24" cy="17.5" rx="1.5" ry="0.8" fill="#FFB6C1" opacity="0.6"/>
  <path d="M22.5 17.5 Q24 18.2 25.5 17.5" stroke="#D0021B" stroke-width="0.8" fill="none" stroke-linecap="round"/>
  
  <!-- Cheeks -->
  <circle cx="17" cy="16.5" r="1.8" fill="#FFB6C1" opacity="0.5"/>
  <circle cx="31" cy="16.5" r="1.8" fill="#FFB6C1" opacity="0.5"/>
  
  <!-- Body - expanded for inhaling -->
  <rect x="15.5" y="22.5" width="17" height="17" rx="3" fill="#7ED321"/>
  <rect x="17.5" y="24.5" width="13" height="2" fill="#50E3C2"/>
  <rect x="17.5" y="28.5" width="13" height="2" fill="#F5A623"/>
  <rect x="17.5" y="32.5" width="13" height="2" fill="#BD10E0"/>
  
  <!-- Arms - relaxed position -->
  <rect x="9.5" y="23.5" width="6" height="12" rx="3" fill="#FDBCB4"/>
  <rect x="32.5" y="23.5" width="6" height="12" rx="3" fill="#FDBCB4"/>
  
  <!-- Hands -->
  <circle cx="12.5" cy="36.5" r="2.2" fill="#FDBCB4"/>
  <circle cx="35.5" cy="36.5" r="2.2" fill="#FDBCB4"/>
  
  <!-- Legs -->
  <rect x="18" y="39.5" width="4" height="8" rx="2" fill="#4A90E2"/>
  <rect x="26" y="39.5" width="4" height="8" rx="2" fill="#4A90E2"/>
  
  <!-- Shoes -->
  <ellipse cx="20" cy="47.5" rx="3" ry="1.5" fill="#2C3E50"/>
  <ellipse cx="28" cy="47.5" rx="3" ry="1.5" fill="#2C3E50"/>
  
  <!-- Breathing effect - subtle glow around chest -->
  <ellipse cx="24" cy="30" rx="8" ry="4" fill="rgba(76, 175, 80, 0.1)" opacity="0.6"/>
</svg>