<svg width="48" height="64" viewBox="0 0 48 64" xmlns="http://www.w3.org/2000/svg">
  <!-- Decorative tree -->
  <!-- Tree shadow -->
  <ellipse cx="25" cy="60" rx="12" ry="4" fill="#000" opacity="0.2"/>
  <!-- Tree trunk -->
  <rect x="20" y="40" width="8" height="20" fill="#8D6E63" stroke="#5D4037" stroke-width="1"/>
  <!-- Trunk texture -->
  <rect x="21" y="42" width="6" height="2" fill="#A1887F"/>
  <rect x="21" y="46" width="6" height="2" fill="#A1887F"/>
  <rect x="21" y="50" width="6" height="2" fill="#A1887F"/>
  <rect x="21" y="54" width="6" height="2" fill="#A1887F"/>
  <!-- Tree crown layers -->
  <circle cx="24" cy="35" r="14" fill="#4CAF50" stroke="#388E3C" stroke-width="1"/>
  <circle cx="20" cy="30" r="10" fill="#66BB6A" stroke="#4CAF50" stroke-width="1"/>
  <circle cx="28" cy="28" r="8" fill="#81C784" stroke="#66BB6A" stroke-width="1"/>
  <circle cx="24" cy="22" r="12" fill="#A5D6A7" stroke="#81C784" stroke-width="1"/>
  <!-- Leaves details -->
  <circle cx="18" cy="32" r="3" fill="#C8E6C9"/>
  <circle cx="30" cy="34" r="3" fill="#C8E6C9"/>
  <circle cx="24" cy="18" r="3" fill="#C8E6C9"/>
  <circle cx="16" cy="26" r="2" fill="#E8F5E8"/>
  <circle cx="32" cy="30" r="2" fill="#E8F5E8"/>
  <!-- Fruits -->
  <circle cx="22" cy="25" r="2" fill="#F44336"/>
  <circle cx="26" cy="30" r="2" fill="#F44336"/>
  <circle cx="20" cy="35" r="2" fill="#F44336"/>
  <!-- Fruit highlights -->
  <circle cx="21" cy="24" r="0.5" fill="#FFCDD2"/>
  <circle cx="25" cy="29" r="0.5" fill="#FFCDD2"/>
  <circle cx="19" cy="34" r="0.5" fill="#FFCDD2"/>
</svg>