<svg width="32" height="32" viewBox="0 0 32 32" xmlns="http://www.w3.org/2000/svg">
  <!-- Grass terrain tile -->
  <!-- Base grass -->
  <rect x="0" y="0" width="32" height="32" fill="#81C784"/>
  <!-- Grass texture pattern -->
  <rect x="2" y="2" width="2" height="2" fill="#66BB6A"/>
  <rect x="6" y="4" width="2" height="2" fill="#66BB6A"/>
  <rect x="10" y="1" width="2" height="2" fill="#66BB6A"/>
  <rect x="14" y="5" width="2" height="2" fill="#66BB6A"/>
  <rect x="18" y="2" width="2" height="2" fill="#66BB6A"/>
  <rect x="22" y="6" width="2" height="2" fill="#66BB6A"/>
  <rect x="26" y="3" width="2" height="2" fill="#66BB6A"/>
  <rect x="4" y="8" width="2" height="2" fill="#66BB6A"/>
  <rect x="8" y="10" width="2" height="2" fill="#66BB6A"/>
  <rect x="12" y="7" width="2" height="2" fill="#66BB6A"/>
  <rect x="16" y="11" width="2" height="2" fill="#66BB6A"/>
  <rect x="20" y="8" width="2" height="2" fill="#66BB6A"/>
  <rect x="24" y="12" width="2" height="2" fill="#66BB6A"/>
  <rect x="28" y="9" width="2" height="2" fill="#66BB6A"/>
  <!-- Grass blades -->
  <rect x="3" y="14" width="1" height="4" fill="#4CAF50"/>
  <rect x="7" y="16" width="1" height="3" fill="#4CAF50"/>
  <rect x="11" y="15" width="1" height="4" fill="#4CAF50"/>
  <rect x="15" y="17" width="1" height="3" fill="#4CAF50"/>
  <rect x="19" y="14" width="1" height="4" fill="#4CAF50"/>
  <rect x="23" y="16" width="1" height="3" fill="#4CAF50"/>
  <rect x="27" y="15" width="1" height="4" fill="#4CAF50"/>
  <!-- Small flowers -->
  <circle cx="5" cy="25" r="1" fill="#FFEB3B"/>
  <circle cx="13" cy="23" r="1" fill="#E91E63"/>
  <circle cx="21" cy="26" r="1" fill="#9C27B0"/>
  <circle cx="29" cy="24" r="1" fill="#FFEB3B"/>
</svg>