<svg width="40" height="40" viewBox="0 0 40 40" xmlns="http://www.w3.org/2000/svg">
  <!-- Base cliff face -->
  <rect x="0" y="0" width="40" height="40" fill="#8B7355"/>
  
  <!-- Rock texture layers -->
  <rect x="0" y="0" width="40" height="8" fill="#A0896B"/>
  <rect x="0" y="8" width="40" height="4" fill="#7A6B4F"/>
  <rect x="0" y="32" width="40" height="8" fill="#6B5D42"/>
  
  <!-- Rock formations -->
  <rect x="4" y="12" width="8" height="6" fill="#9A8A7A"/>
  <rect x="16" y="10" width="6" height="8" fill="#9A8A7A"/>
  <rect x="28" y="14" width="8" height="6" fill="#9A8A7A"/>
  
  <!-- Shadows and depth -->
  <rect x="0" y="20" width="40" height="2" fill="#5A4D38"/>
  <rect x="12" y="16" width="2" height="8" fill="#5A4D38"/>
  <rect x="24" y="18" width="2" height="6" fill="#5A4D38"/>
  
  <!-- Highlight edges -->
  <rect x="0" y="0" width="40" height="2" fill="#B5A085"/>
  <rect x="0" y="0" width="2" height="40" fill="#B5A085"/>
  
  <!-- Small rock details -->
  <rect x="6" y="24" width="2" height="2" fill="#6B5D42"/>
  <rect x="18" y="26" width="2" height="2" fill="#6B5D42"/>
  <rect x="30" y="22" width="2" height="2" fill="#6B5D42"/>
  <rect x="14" y="30" width="2" height="2" fill="#6B5D42"/>
  <rect x="26" y="28" width="2" height="2" fill="#6B5D42"/>
</svg>