<svg width="40" height="40" viewBox="0 0 40 40" xmlns="http://www.w3.org/2000/svg">
  <!-- Tree trunk -->
  <rect x="16" y="28" width="8" height="12" fill="#8B4513"/>
  <rect x="17" y="29" width="6" height="10" fill="#A0522D"/>
  
  <!-- Tree canopy - main body -->
  <rect x="8" y="12" width="24" height="20" fill="#228B22"/>
  
  <!-- Tree canopy - top layer -->
  <rect x="10" y="8" width="20" height="8" fill="#32CD32"/>
  
  <!-- Tree canopy - rounded top -->
  <rect x="12" y="6" width="16" height="4" fill="#32CD32"/>
  <rect x="14" y="4" width="12" height="4" fill="#32CD32"/>
  <rect x="16" y="2" width="8" height="4" fill="#32CD32"/>
  
  <!-- Tree canopy - side details -->
  <rect x="6" y="16" width="4" height="8" fill="#228B22"/>
  <rect x="30" y="16" width="4" height="8" fill="#228B22"/>
  
  <!-- Tree canopy - darker shadows -->
  <rect x="8" y="24" width="24" height="4" fill="#006400"/>
  <rect x="10" y="20" width="20" height="4" fill="#006400"/>
  
  <!-- Tree canopy - highlights -->
  <rect x="12" y="10" width="16" height="2" fill="#90EE90"/>
  <rect x="14" y="8" width="12" height="2" fill="#90EE90"/>
  
  <!-- Trunk highlights -->
  <rect x="16" y="28" width="2" height="12" fill="#CD853F"/>
  
  <!-- Pixel art style outline -->
  <rect x="8" y="12" width="24" height="1" fill="#006400"/>
  <rect x="8" y="31" width="24" height="1" fill="#006400"/>
  <rect x="8" y="12" width="1" height="20" fill="#006400"/>
  <rect x="31" y="12" width="1" height="20" fill="#006400"/>
</svg>