<svg width="40" height="40" viewBox="0 0 40 40" xmlns="http://www.w3.org/2000/svg">
  <!-- Base elevated ground -->
  <rect x="0" y="0" width="40" height="40" fill="#5a8a5a"/>
  
  <!-- Grass texture -->
  <rect x="0" y="0" width="40" height="4" fill="#6a9a6a"/>
  <rect x="0" y="36" width="40" height="4" fill="#4a7a4a"/>
  
  <!-- Grass blades -->
  <rect x="2" y="8" width="1" height="6" fill="#3a6a3a"/>
  <rect x="6" y="6" width="1" height="8" fill="#3a6a3a"/>
  <rect x="10" y="10" width="1" height="5" fill="#3a6a3a"/>
  <rect x="14" y="7" width="1" height="7" fill="#3a6a3a"/>
  <rect x="18" y="9" width="1" height="6" fill="#3a6a3a"/>
  <rect x="22" y="5" width="1" height="9" fill="#3a6a3a"/>
  <rect x="26" y="8" width="1" height="6" fill="#3a6a3a"/>
  <rect x="30" y="6" width="1" height="8" fill="#3a6a3a"/>
  <rect x="34" y="9" width="1" height="5" fill="#3a6a3a"/>
  <rect x="38" y="7" width="1" height="7" fill="#3a6a3a"/>
  
  <!-- More grass blades in middle -->
  <rect x="4" y="20" width="1" height="6" fill="#3a6a3a"/>
  <rect x="8" y="18" width="1" height="8" fill="#3a6a3a"/>
  <rect x="12" y="22" width="1" height="5" fill="#3a6a3a"/>
  <rect x="16" y="19" width="1" height="7" fill="#3a6a3a"/>
  <rect x="20" y="21" width="1" height="6" fill="#3a6a3a"/>
  <rect x="24" y="17" width="1" height="9" fill="#3a6a3a"/>
  <rect x="28" y="20" width="1" height="6" fill="#3a6a3a"/>
  <rect x="32" y="18" width="1" height="8" fill="#3a6a3a"/>
  <rect x="36" y="21" width="1" height="5" fill="#3a6a3a"/>
  
  <!-- Bottom grass blades -->
  <rect x="3" y="30" width="1" height="6" fill="#3a6a3a"/>
  <rect x="7" y="28" width="1" height="8" fill="#3a6a3a"/>
  <rect x="11" y="32" width="1" height="4" fill="#3a6a3a"/>
  <rect x="15" y="29" width="1" height="7" fill="#3a6a3a"/>
  <rect x="19" y="31" width="1" height="5" fill="#3a6a3a"/>
  <rect x="23" y="27" width="1" height="9" fill="#3a6a3a"/>
  <rect x="27" y="30" width="1" height="6" fill="#3a6a3a"/>
  <rect x="31" y="28" width="1" height="8" fill="#3a6a3a"/>
  <rect x="35" y="31" width="1" height="5" fill="#3a6a3a"/>
  <rect x="39" y="29" width="1" height="7" fill="#3a6a3a"/>
  
  <!-- Elevation highlight -->
  <rect x="0" y="0" width="40" height="2" fill="#7aaa7a"/>
  <rect x="0" y="0" width="2" height="40" fill="#7aaa7a"/>
</svg>