<svg width="100" height="100" viewBox="0 0 100 100" xmlns="http://www.w3.org/2000/svg">
  <!-- Background glow -->
  <defs>
    <radialGradient id="wormGlow" cx="50%" cy="50%" r="50%">
      <stop offset="0%" style="stop-color:#FFE082;stop-opacity:0.3" />
      <stop offset="100%" style="stop-color:#FFE082;stop-opacity:0" />
    </radialGradient>
    
    <!-- Body segment gradient -->
    <linearGradient id="segmentGrad" x1="0%" y1="0%" x2="100%" y2="100%">
      <stop offset="0%" style="stop-color:#81C784" />
      <stop offset="50%" style="stop-color:#66BB6A" />
      <stop offset="100%" style="stop-color:#4CAF50" />
    </linearGradient>
    
    <!-- Head gradient -->
    <radialGradient id="headGrad" cx="30%" cy="30%" r="70%">
      <stop offset="0%" style="stop-color:#A5D6A7" />
      <stop offset="100%" style="stop-color:#66BB6A" />
    </radialGradient>
    
    <!-- Eye gradient -->
    <radialGradient id="eyeGrad" cx="30%" cy="30%" r="70%">
      <stop offset="0%" style="stop-color:#FFFFFF" />
      <stop offset="70%" style="stop-color:#E3F2FD" />
      <stop offset="100%" style="stop-color:#BBDEFB" />
    </radialGradient>
  </defs>
  
  <!-- Background glow -->
  <circle cx="50" cy="50" r="45" fill="url(#wormGlow)" />
  
  <!-- Worm body segments (from tail to head) -->
  <!-- Tail segment -->
  <ellipse cx="85" cy="65" rx="8" ry="6" fill="url(#segmentGrad)" transform="rotate(45 85 65)" />
  
  <!-- Body segment 6 -->
  <ellipse cx="75" cy="55" rx="10" ry="8" fill="url(#segmentGrad)" transform="rotate(30 75 55)" />
  
  <!-- Body segment 5 -->
  <ellipse cx="65" cy="45" rx="11" ry="9" fill="url(#segmentGrad)" transform="rotate(15 65 45)" />
  
  <!-- Body segment 4 -->
  <ellipse cx="55" cy="40" rx="12" ry="10" fill="url(#segmentGrad)" transform="rotate(5 55 40)" />
  
  <!-- Body segment 3 -->
  <ellipse cx="45" cy="38" rx="13" ry="11" fill="url(#segmentGrad)" transform="rotate(-5 45 38)" />
  
  <!-- Body segment 2 -->
  <ellipse cx="35" cy="40" rx="14" ry="12" fill="url(#segmentGrad)" transform="rotate(-15 35 40)" />
  
  <!-- Head segment -->
  <ellipse cx="25" cy="45" rx="16" ry="14" fill="url(#headGrad)" transform="rotate(-25 25 45)" />
  
  <!-- Segment highlights -->
  <ellipse cx="75" cy="52" rx="6" ry="4" fill="rgba(255,255,255,0.3)" transform="rotate(30 75 52)" />
  <ellipse cx="65" cy="42" rx="7" ry="5" fill="rgba(255,255,255,0.3)" transform="rotate(15 65 42)" />
  <ellipse cx="55" cy="37" rx="8" ry="6" fill="rgba(255,255,255,0.3)" transform="rotate(5 55 37)" />
  <ellipse cx="45" cy="35" rx="9" ry="7" fill="rgba(255,255,255,0.3)" transform="rotate(-5 45 35)" />
  <ellipse cx="35" cy="37" rx="10" ry="8" fill="rgba(255,255,255,0.3)" transform="rotate(-15 35 37)" />
  
  <!-- Eyes -->
  <circle cx="20" cy="40" r="6" fill="url(#eyeGrad)" stroke="#4CAF50" stroke-width="1" />
  <circle cx="18" cy="38" r="3" fill="#2196F3" />
  <circle cx="19" cy="37" r="1.5" fill="#FFFFFF" />
  
  <circle cx="28" cy="48" r="6" fill="url(#eyeGrad)" stroke="#4CAF50" stroke-width="1" />
  <circle cx="26" cy="46" r="3" fill="#2196F3" />
  <circle cx="27" cy="45" r="1.5" fill="#FFFFFF" />
  
  <!-- Happy mouth -->
  <path d="M 15 48 Q 20 52 25 48" stroke="#4CAF50" stroke-width="2" fill="none" stroke-linecap="round" />
  
  <!-- Cute cheeks -->
  <circle cx="12" cy="45" r="3" fill="#FFB74D" opacity="0.6" />
  <circle cx="32" cy="52" r="3" fill="#FFB74D" opacity="0.6" />
  
  <!-- Antennae -->
  <line x1="18" y1="35" x2="15" y2="28" stroke="#4CAF50" stroke-width="2" stroke-linecap="round" />
  <circle cx="15" cy="28" r="2" fill="#FF9800" />
  
  <line x1="26" y1="42" x2="23" y2="35" stroke="#4CAF50" stroke-width="2" stroke-linecap="round" />
  <circle cx="23" cy="35" r="2" fill="#FF9800" />
  
  <!-- Decorative spots -->
  <circle cx="70" cy="50" r="2" fill="#FFE082" opacity="0.8" />
  <circle cx="60" cy="42" r="1.5" fill="#FFE082" opacity="0.8" />
  <circle cx="50" cy="36" r="2" fill="#FFE082" opacity="0.8" />
  <circle cx="40" cy="35" r="1.5" fill="#FFE082" opacity="0.8" />
  
  <!-- Sparkles around the worm -->
  <g opacity="0.7">
    <path d="M 10 20 L 12 22 L 10 24 L 8 22 Z" fill="#FFD700" />
    <path d="M 85 25 L 87 27 L 85 29 L 83 27 Z" fill="#FFD700" />
    <path d="M 90 75 L 92 77 L 90 79 L 88 77 Z" fill="#FFD700" />
    <path d="M 15 80 L 17 82 L 15 84 L 13 82 Z" fill="#FFD700" />
  </g>
  
  <!-- Animation sparkles -->
  <g opacity="0.5">
    <circle cx="30" cy="20" r="1" fill="#FFFFFF">
      <animate attributeName="opacity" values="0.5;1;0.5" dur="2s" repeatCount="indefinite" />
    </circle>
    <circle cx="70" cy="30" r="1" fill="#FFFFFF">
      <animate attributeName="opacity" values="1;0.5;1" dur="2.5s" repeatCount="indefinite" />
    </circle>
    <circle cx="80" cy="80" r="1" fill="#FFFFFF">
      <animate attributeName="opacity" values="0.5;1;0.5" dur="3s" repeatCount="indefinite" />
    </circle>
  </g>
</svg>