<svg width="50" height="50" viewBox="0 0 50 50" xmlns="http://www.w3.org/2000/svg">
  <!-- Colorful Kid-Friendly Player Character (front view) -->
  <!-- Background circle for visibility -->
  <circle cx="25" cy="25" r="24" fill="#E8F4FD" stroke="#4A90E2" stroke-width="1" opacity="0.3"/>
  
  <!-- Head -->
  <circle cx="25" cy="16" r="9" fill="#FDBCB4" stroke="#E09F94" stroke-width="1"/>
  
  <!-- Hair -->
  <path d="M16 12 Q25 6 34 12 Q34 9 31 7 Q25 4 19 7 Q16 9 16 12" fill="#FF6B35"/>
  <circle cx="20" cy="10" r="1.5" fill="#FF8C42" opacity="0.7"/>
  <circle cx="30" cy="10" r="1.5" fill="#FF8C42" opacity="0.7"/>
  
  <!-- Eyes -->
  <circle cx="21" cy="15" r="2" fill="#FFFFFF"/>
  <circle cx="29" cy="15" r="2" fill="#FFFFFF"/>
  <circle cx="21" cy="15" r="1.2" fill="#4A90E2"/>
  <circle cx="29" cy="15" r="1.2" fill="#4A90E2"/>
  <circle cx="21.5" cy="14.5" r="0.5" fill="#FFFFFF"/>
  <circle cx="29.5" cy="14.5" r="0.5" fill="#FFFFFF"/>
  
  <!-- Nose -->
  <ellipse cx="25" cy="17" rx="0.8" ry="1.5" fill="#F5A9A0"/>
  
  <!-- Mouth - Happy smile -->
  <path d="M22 19 Q25 22 28 19" stroke="#D0021B" stroke-width="1.5" fill="none" stroke-linecap="round"/>
  
  <!-- Cheeks -->
  <circle cx="18" cy="18" r="2" fill="#FFB6C1" opacity="0.6"/>
  <circle cx="32" cy="18" r="2" fill="#FFB6C1" opacity="0.6"/>
  
  <!-- Body - Colorful shirt -->
  <rect x="17" y="25" width="16" height="15" rx="3" fill="#7ED321"/>
  <rect x="19" y="27" width="12" height="2" fill="#50E3C2"/>
  <rect x="19" y="31" width="12" height="2" fill="#F5A623"/>
  <rect x="19" y="35" width="12" height="2" fill="#BD10E0"/>
  
  <!-- Arms -->
  <rect x="11" y="26" width="6" height="10" rx="3" fill="#FDBCB4"/>
  <rect x="33" y="26" width="6" height="10" rx="3" fill="#FDBCB4"/>
  
  <!-- Hands -->
  <circle cx="14" cy="37" r="2.5" fill="#FDBCB4"/>
  <circle cx="36" cy="37" r="2.5" fill="#FDBCB4"/>
  
  <!-- Legs - Colorful pants -->
  <rect x="19" y="40" width="4" height="8" rx="2" fill="#4A90E2"/>
  <rect x="27" y="40" width="4" height="8" rx="2" fill="#4A90E2"/>
  
  <!-- Shoes -->
  <ellipse cx="21" cy="48" rx="3" ry="1.5" fill="#D0021B"/>
  <ellipse cx="29" cy="48" rx="3" ry="1.5" fill="#D0021B"/>
  <ellipse cx="21" cy="47.5" rx="2" ry="1" fill="#FF6B6B"/>
  <ellipse cx="29" cy="47.5" rx="2" ry="1" fill="#FF6B6B"/>
  
  <!-- Fun details -->
  <circle cx="25" cy="29" r="1" fill="#FFD700"/> <!-- Button -->
  <circle cx="25" cy="33" r="1" fill="#FFD700"/> <!-- Button -->
  
  <!-- Sparkles around character -->
  <path d="M8 8 L10 10 L8 12 L6 10 Z" fill="#FFD700" opacity="0.8"/>
  <path d="M42 8 L44 10 L42 12 L40 10 Z" fill="#50E3C2" opacity="0.8"/>
  <path d="M8 42 L10 44 L8 46 L6 44 Z" fill="#BD10E0" opacity="0.8"/>
  <path d="M42 42 L44 44 L42 46 L40 44 Z" fill="#7ED321" opacity="0.8"/>
</svg>