<svg width="32" height="32" viewBox="0 0 32 32" xmlns="http://www.w3.org/2000/svg">
  <!-- Player facing away (back view) -->
  <!-- Head -->
  <circle cx="16" cy="10" r="6" fill="#FDBCB4" stroke="#E09F94" stroke-width="0.5"/>
  
  <!-- Hair (back view) -->
  <path d="M10 8 Q16 4 22 8 Q22 12 20 14 Q16 16 12 14 Q10 12 10 8" fill="#8B4513"/>
  
  <!-- Body -->
  <rect x="12" y="16" width="8" height="10" rx="2" fill="#4A90E2"/>
  
  <!-- Arms -->
  <rect x="8" y="17" width="4" height="6" rx="2" fill="#FDBCB4"/>
  <rect x="20" y="17" width="4" height="6" rx="2" fill="#FDBCB4"/>
  
  <!-- Hands -->
  <circle cx="10" cy="24" r="1.5" fill="#FDBCB4"/>
  <circle cx="22" cy="24" r="1.5" fill="#FDBCB4"/>
  
  <!-- Legs -->
  <rect x="13" y="26" width="2.5" height="5" rx="1" fill="#654321"/>
  <rect x="16.5" y="26" width="2.5" height="5" rx="1" fill="#654321"/>
  
  <!-- Feet -->
  <ellipse cx="14.25" cy="31.5" rx="2" ry="1" fill="#000"/>
  <ellipse cx="17.75" cy="31.5" rx="2" ry="1" fill="#000"/>
</svg>