<svg width="64" height="64" viewBox="0 0 64 64" xmlns="http://www.w3.org/2000/svg">
  <!-- Bridge base -->
  <rect x="8" y="28" width="48" height="8" fill="#D2691E" stroke="#8B4513" stroke-width="1"/>
  
  <!-- Wood planks -->
  <rect x="10" y="29" width="6" height="6" fill="#CD853F" stroke="#A0522D" stroke-width="0.5"/>
  <rect x="18" y="29" width="6" height="6" fill="#DEB887" stroke="#A0522D" stroke-width="0.5"/>
  <rect x="26" y="29" width="6" height="6" fill="#CD853F" stroke="#A0522D" stroke-width="0.5"/>
  <rect x="34" y="29" width="6" height="6" fill="#DEB887" stroke="#A0522D" stroke-width="0.5"/>
  <rect x="42" y="29" width="6" height="6" fill="#CD853F" stroke="#A0522D" stroke-width="0.5"/>
  <rect x="50" y="29" width="4" height="6" fill="#DEB887" stroke="#A0522D" stroke-width="0.5"/>
  
  <!-- Wood grain lines -->
  <line x1="12" y1="30" x2="12" y2="34" stroke="#8B4513" stroke-width="0.5" opacity="0.6"/>
  <line x1="20" y1="30" x2="20" y2="34" stroke="#8B4513" stroke-width="0.5" opacity="0.6"/>
  <line x1="28" y1="30" x2="28" y2="34" stroke="#8B4513" stroke-width="0.5" opacity="0.6"/>
  <line x1="36" y1="30" x2="36" y2="34" stroke="#8B4513" stroke-width="0.5" opacity="0.6"/>
  <line x1="44" y1="30" x2="44" y2="34" stroke="#8B4513" stroke-width="0.5" opacity="0.6"/>
  <line x1="52" y1="30" x2="52" y2="34" stroke="#8B4513" stroke-width="0.5" opacity="0.6"/>
  
  <!-- Support beams -->
  <rect x="15" y="25" width="3" height="14" fill="#8B4513" stroke="#654321" stroke-width="1"/>
  <rect x="46" y="25" width="3" height="14" fill="#8B4513" stroke="#654321" stroke-width="1"/>
  
  <!-- Rope/binding -->
  <circle cx="17" cy="30" r="1" fill="#DAA520" stroke="#B8860B" stroke-width="0.5"/>
  <circle cx="17" cy="34" r="1" fill="#DAA520" stroke="#B8860B" stroke-width="0.5"/>
  <circle cx="47" cy="30" r="1" fill="#DAA520" stroke="#B8860B" stroke-width="0.5"/>
  <circle cx="47" cy="34" r="1" fill="#DAA520" stroke="#B8860B" stroke-width="0.5"/>
  
  <!-- Shadow -->
  <ellipse cx="32" cy="42" rx="20" ry="3" fill="#000000" opacity="0.2"/>
</svg>