<svg width="40" height="40" viewBox="0 0 40 40" xmlns="http://www.w3.org/2000/svg">
  <!-- Base layers with gradient transition -->
  <rect x="0" y="0" width="40" height="40" fill="url(#shorelineGradient)"/>
  
  <!-- Seamless grass texture overlay -->
  <rect x="0" y="0" width="40" height="22" fill="url(#seamlessGrassPattern)" opacity="0.9"/>
  
  <!-- Water texture overlay -->
  <rect x="0" y="18" width="40" height="22" fill="url(#waterPattern)" opacity="0.8"/>
  
  <!-- Natural shoreline edge with soft transition -->
  <path d="M0,19 Q8,17.5 16,19 Q24,20.5 32,19 Q36,18.5 40,19 L40,21 Q36,21.5 32,21 Q24,19.5 16,21 Q8,22.5 0,21 Z" 
        fill="url(#shoreTransition)" opacity="0.7"/>
  
  <!-- Wet sand/mud with natural variation -->
  <path d="M0,19.5 Q8,18 16,19.5 Q24,21 32,19.5 Q36,19 40,19.5 L40,20.5 Q36,21 32,20.5 Q24,20 16,20.5 Q8,21 0,20.5 Z" 
        fill="url(#wetSandGradient)" opacity="0.6"/>
  
  <!-- Subtle water ripples -->
  <g opacity="0.3">
    <ellipse cx="10" cy="28" rx="8" ry="1.2" fill="url(#rippleGradient)" opacity="0.4"/>
    <ellipse cx="25" cy="32" rx="10" ry="1.5" fill="url(#rippleGradient)" opacity="0.3"/>
    <ellipse cx="35" cy="26" rx="6" ry="1" fill="url(#rippleGradient)" opacity="0.4"/>
  </g>
  
  <!-- Natural foam/bubbles along shoreline -->
  <g opacity="0.4">
    <circle cx="6" cy="20" r="0.6" fill="url(#foamGradient)"/>
    <circle cx="14" cy="19.5" r="0.4" fill="url(#foamGradient)"/>
    <circle cx="22" cy="20.5" r="0.5" fill="url(#foamGradient)"/>
    <circle cx="30" cy="19" r="0.3" fill="url(#foamGradient)"/>
    <circle cx="38" cy="20" r="0.4" fill="url(#foamGradient)"/>
  </g>
  
  <!-- Scattered pebbles with natural placement -->
  <g opacity="0.25">
    <ellipse cx="8" cy="19.5" rx="0.3" ry="0.2" fill="#7a6b5d"/>
    <ellipse cx="18" cy="20.2" rx="0.2" ry="0.15" fill="#8b7d6f"/>
    <ellipse cx="28" cy="19.8" rx="0.4" ry="0.25" fill="#7a6b5d"/>
    <ellipse cx="35" cy="20.5" rx="0.25" ry="0.2" fill="#8b7d6f"/>
  </g>
  
  <!-- Grass blades extending naturally into shore -->
  <g opacity="0.5">
    <path d="M4,18.5 Q4.5,16 5,18.5" stroke="#5a8c69" stroke-width="0.3" fill="none"/>
    <path d="M12,19 Q12.5,16.5 13,19" stroke="#5a8c69" stroke-width="0.3" fill="none"/>
    <path d="M20,18 Q20.5,15.5 21,18" stroke="#5a8c69" stroke-width="0.3" fill="none"/>
    <path d="M28,19.5 Q28.5,17 29,19.5" stroke="#5a8c69" stroke-width="0.3" fill="none"/>
    <path d="M36,18.5 Q36.5,16 37,18.5" stroke="#5a8c69" stroke-width="0.3" fill="none"/>
  </g>
  
  <!-- Soft water reflections -->
  <g opacity="0.15">
    <ellipse cx="15" cy="25" rx="12" ry="0.8" fill="url(#reflectionGradient)"/>
    <ellipse cx="25" cy="30" rx="10" ry="0.6" fill="url(#reflectionGradient)"/>
    <ellipse cx="30" cy="35" rx="8" ry="0.5" fill="url(#reflectionGradient)"/>
  </g>
  
  <defs>
    <!-- Main shoreline gradient from grass to water -->
    <linearGradient id="shorelineGradient" x1="0%" y1="0%" x2="0%" y2="100%">
      <stop offset="0%" style="stop-color:#4a7c59;stop-opacity:1"/>
      <stop offset="45%" style="stop-color:#4a7c59;stop-opacity:1"/>
      <stop offset="50%" style="stop-color:#6b8e5a;stop-opacity:1"/>
      <stop offset="55%" style="stop-color:#5a8bc7;stop-opacity:1"/>
      <stop offset="100%" style="stop-color:#4a90e2;stop-opacity:1"/>
    </linearGradient>
    
    <!-- Shore transition gradient -->
    <linearGradient id="shoreTransition" x1="0%" y1="0%" x2="0%" y2="100%">
      <stop offset="0%" style="stop-color:#6b8e5a;stop-opacity:0.8"/>
      <stop offset="50%" style="stop-color:#7a9d69;stop-opacity:0.6"/>
      <stop offset="100%" style="stop-color:#89ac78;stop-opacity:0.4"/>
    </linearGradient>
    
    <!-- Wet sand gradient -->
    <linearGradient id="wetSandGradient" x1="0%" y1="0%" x2="0%" y2="100%">
      <stop offset="0%" style="stop-color:#8db373;stop-opacity:0.7"/>
      <stop offset="100%" style="stop-color:#9cc382;stop-opacity:0.3"/>
    </linearGradient>
    
    <!-- Seamless grass pattern -->
    <pattern id="seamlessGrassPattern" patternUnits="userSpaceOnUse" width="6" height="6">
      <rect width="6" height="6" fill="#4a7c59"/>
      <rect x="0" y="0" width="3" height="3" fill="#5a8c69" opacity="0.15"/>
      <rect x="3" y="3" width="3" height="3" fill="#5a8c69" opacity="0.15"/>
      <rect x="1" y="1" width="2" height="2" fill="#6a9c79" opacity="0.1"/>
      <rect x="4" y="4" width="2" height="2" fill="#6a9c79" opacity="0.1"/>
    </pattern>
    
    <!-- Water pattern -->
    <pattern id="waterPattern" patternUnits="userSpaceOnUse" width="8" height="8">
      <rect width="8" height="8" fill="#4a90e2"/>
      <circle cx="2" cy="2" r="1" fill="#5a9ff2" opacity="0.2"/>
      <circle cx="6" cy="6" r="1" fill="#5a9ff2" opacity="0.2"/>
      <circle cx="2" cy="6" r="0.8" fill="#6aafff" opacity="0.15"/>
      <circle cx="6" cy="2" r="0.8" fill="#6aafff" opacity="0.15"/>
    </pattern>
    
    <!-- Ripple gradient -->
    <radialGradient id="rippleGradient" cx="50%" cy="50%" r="50%">
      <stop offset="0%" style="stop-color:#ffffff;stop-opacity:0.3"/>
      <stop offset="70%" style="stop-color:#ffffff;stop-opacity:0.1"/>
      <stop offset="100%" style="stop-color:#ffffff;stop-opacity:0"/>
    </radialGradient>
    
    <!-- Foam gradient -->
    <radialGradient id="foamGradient" cx="50%" cy="50%" r="50%">
      <stop offset="0%" style="stop-color:#ffffff;stop-opacity:0.8"/>
      <stop offset="60%" style="stop-color:#ffffff;stop-opacity:0.4"/>
      <stop offset="100%" style="stop-color:#ffffff;stop-opacity:0"/>
    </radialGradient>
    
    <!-- Reflection gradient -->
    <linearGradient id="reflectionGradient" x1="0%" y1="0%" x2="100%" y2="0%">
      <stop offset="0%" style="stop-color:#ffffff;stop-opacity:0"/>
      <stop offset="30%" style="stop-color:#ffffff;stop-opacity:0.2"/>
      <stop offset="70%" style="stop-color:#ffffff;stop-opacity:0.2"/>
      <stop offset="100%" style="stop-color:#ffffff;stop-opacity:0"/>
    </linearGradient>
  </defs>
</svg>