<svg width="64" height="64" viewBox="0 0 64 64" xmlns="http://www.w3.org/2000/svg">
  <!-- Water base -->
  <rect x="0" y="0" width="64" height="64" fill="#4682B4"/>
  
  <!-- Wave layers -->
  <path d="M0 20 Q16 15 32 20 Q48 25 64 20 L64 64 L0 64 Z" fill="#5F9EA0" opacity="0.8"/>
  <path d="M0 35 Q16 30 32 35 Q48 40 64 35 L64 64 L0 64 Z" fill="#87CEEB" opacity="0.6"/>
  <path d="M0 50 Q16 45 32 50 Q48 55 64 50 L64 64 L0 64 Z" fill="#B0E0E6" opacity="0.4"/>
  
  <!-- Surface ripples -->
  <path d="M0 10 Q8 8 16 10 Q24 12 32 10 Q40 8 48 10 Q56 12 64 10" fill="none" stroke="#E0F6FF" stroke-width="1" opacity="0.7"/>
  <path d="M0 25 Q8 23 16 25 Q24 27 32 25 Q40 23 48 25 Q56 27 64 25" fill="none" stroke="#E0F6FF" stroke-width="1" opacity="0.5"/>
  <path d="M0 40 Q8 38 16 40 Q24 42 32 40 Q40 38 48 40 Q56 42 64 40" fill="none" stroke="#E0F6FF" stroke-width="1" opacity="0.3"/>
  
  <!-- Light reflections -->
  <ellipse cx="20" cy="15" rx="3" ry="1" fill="#FFFFFF" opacity="0.6"/>
  <ellipse cx="45" cy="30" rx="2" ry="0.8" fill="#FFFFFF" opacity="0.5"/>
  <ellipse cx="15" cy="45" rx="2.5" ry="1" fill="#FFFFFF" opacity="0.4"/>
  <ellipse cx="50" cy="55" rx="2" ry="0.8" fill="#FFFFFF" opacity="0.3"/>
  
  <!-- Deeper water areas -->
  <circle cx="25" cy="35" r="8" fill="#2F4F4F" opacity="0.3"/>
  <circle cx="45" cy="50" r="6" fill="#2F4F4F" opacity="0.2"/>
  
  <!-- Foam bubbles -->
  <circle cx="10" cy="12" r="1" fill="#FFFFFF" opacity="0.8"/>
  <circle cx="35" cy="18" r="0.8" fill="#FFFFFF" opacity="0.7"/>
  <circle cx="55" cy="22" r="1.2" fill="#FFFFFF" opacity="0.6"/>
  <circle cx="18" cy="38" r="0.6" fill="#FFFFFF" opacity="0.5"/>
  <circle cx="42" cy="42" r="0.8" fill="#FFFFFF" opacity="0.4"/>
</svg>