<svg width="32" height="32" viewBox="0 0 32 32" xmlns="http://www.w3.org/2000/svg">
  <defs>
    <!-- Gradients for lava and cave floor -->
    <linearGradient id="lavaGradientVertical" x1="0%" y1="0%" x2="100%" y2="0%">
      <stop offset="0%" style="stop-color:#BF360C;stop-opacity:1" />
      <stop offset="30%" style="stop-color:#D84315;stop-opacity:1" />
      <stop offset="50%" style="stop-color:#FF5722;stop-opacity:1" />
      <stop offset="70%" style="stop-color:#FF7043;stop-opacity:1" />
      <stop offset="100%" style="stop-color:#FF8A65;stop-opacity:1" />
    </linearGradient>
    
    <linearGradient id="caveFloorGradientVertical" x1="0%" y1="0%" x2="100%" y2="0%">
      <stop offset="0%" style="stop-color:#1C1C1C;stop-opacity:1" />
      <stop offset="30%" style="stop-color:#2E2E2E;stop-opacity:1" />
      <stop offset="70%" style="stop-color:#3E2723;stop-opacity:1" />
      <stop offset="100%" style="stop-color:#4E342E;stop-opacity:1" />
    </linearGradient>
    
    <!-- Transition gradient -->
    <linearGradient id="transitionGradientVertical" x1="0%" y1="0%" x2="100%" y2="0%">
      <stop offset="0%" style="stop-color:#BF360C;stop-opacity:1" />
      <stop offset="20%" style="stop-color:#D84315;stop-opacity:0.8" />
      <stop offset="40%" style="stop-color:#5D4037;stop-opacity:0.6" />
      <stop offset="60%" style="stop-color:#3E2723;stop-opacity:0.8" />
      <stop offset="100%" style="stop-color:#2E2E2E;stop-opacity:1" />
    </linearGradient>
    
    <!-- Filters for effects -->
    <filter id="lavaFlowVertical" x="-50%" y="-50%" width="200%" height="200%">
      <feTurbulence baseFrequency="0.4" numOctaves="3" result="noise" />
      <feDisplacementMap in="SourceGraphic" in2="noise" scale="2" />
    </filter>
    
    <filter id="heatShimmerVertical" x="-50%" y="-50%" width="200%" height="200%">
      <feTurbulence baseFrequency="0.6" numOctaves="2" result="noise" />
      <feDisplacementMap in="SourceGraphic" in2="noise" scale="1" />
    </filter>
    
    <filter id="glowVertical" x="-50%" y="-50%" width="200%" height="200%">
      <feGaussianBlur stdDeviation="2" result="coloredBlur"/>
      <feMerge> 
        <feMergeNode in="coloredBlur"/>
        <feMergeNode in="SourceGraphic"/> 
      </feMerge>
    </filter>
    
    <filter id="caveTextureVertical" x="-50%" y="-50%" width="200%" height="200%">
      <feTurbulence baseFrequency="0.9" numOctaves="4" result="noise" />
      <feColorMatrix in="noise" type="saturate" values="0"/>
      <feComponentTransfer>
        <feFuncA type="discrete" tableValues="0 .2 .4 .6 .8 1"/>
      </feComponentTransfer>
      <feComposite in2="SourceGraphic" operator="multiply"/>
    </filter>
  </defs>
  
  <!-- Lava section (left side) -->
  <rect x="0" y="0" width="16" height="32" fill="url(#lavaGradientVertical)" filter="url(#lavaFlowVertical)" />
  
  <!-- Cave floor section (right side) -->
  <rect x="16" y="0" width="16" height="32" fill="url(#caveFloorGradientVertical)" filter="url(#caveTextureVertical)" />
  
  <!-- Transition zone with heat effect -->
  <rect x="12" y="0" width="8" height="32" fill="url(#transitionGradientVertical)" filter="url(#heatShimmerVertical)" opacity="0.8" />
  
  <!-- Lava bubbles and flow patterns -->
  <circle cx="6" cy="4" r="1.5" fill="#FFAB40" opacity="0.8" filter="url(#glowVertical)" />
  <circle cx="10" cy="8" r="1" fill="#FF6D00" opacity="0.6" />
  <circle cx="4" cy="12" r="1.2" fill="#FFAB40" opacity="0.7" filter="url(#glowVertical)" />
  <circle cx="8" cy="16" r="0.8" fill="#FF8F00" opacity="0.5" />
  <circle cx="12" cy="20" r="1.4" fill="#FFAB40" opacity="0.8" filter="url(#glowVertical)" />
  <circle cx="5" cy="24" r="1" fill="#FF6D00" opacity="0.6" />
  <circle cx="9" cy="28" r="1.1" fill="#FFAB40" opacity="0.7" filter="url(#glowVertical)" />
  
  <!-- Molten rock edges -->
  <path d="M12 2 Q14 4 13 6 Q15 8 14 10 Q16 12 15 14" stroke="#FF3D00" stroke-width="1" fill="none" opacity="0.8" />
  <path d="M13 16 Q15 18 14 20 Q16 22 15 24 Q17 26 16 28 Q18 30 17 32" stroke="#FF3D00" stroke-width="1" fill="none" opacity="0.8" />
  
  <!-- Heat glow at transition -->
  <ellipse cx="14" cy="6" rx="3" ry="2" fill="#FF5722" opacity="0.3" filter="url(#glowVertical)" />
  <ellipse cx="15" cy="12" rx="2.5" ry="1.5" fill="#FF7043" opacity="0.4" filter="url(#glowVertical)" />
  <ellipse cx="13" cy="18" rx="3.2" ry="2.2" fill="#FF5722" opacity="0.3" filter="url(#glowVertical)" />
  <ellipse cx="16" cy="24" rx="2.8" ry="1.8" fill="#FF7043" opacity="0.4" filter="url(#glowVertical)" />
  
  <!-- Cave floor rocks and debris -->
  <circle cx="20" cy="5" r="1" fill="#5D4037" opacity="0.8" />
  <circle cx="24" cy="3" r="0.6" fill="#6D4C41" opacity="0.7" />
  <circle cx="28" cy="7" r="0.8" fill="#5D4037" opacity="0.6" />
  <circle cx="18" cy="11" r="1.2" fill="#4E342E" opacity="0.8" />
  <circle cx="22" cy="9" r="0.7" fill="#6D4C41" opacity="0.7" />
  <circle cx="26" cy="13" r="0.9" fill="#5D4037" opacity="0.6" />
  <circle cx="30" cy="11" r="0.5" fill="#4E342E" opacity="0.8" />
  
  <circle cx="19" cy="17" r="0.8" fill="#6D4C41" opacity="0.7" />
  <circle cx="23" cy="15" r="1.1" fill="#5D4037" opacity="0.8" />
  <circle cx="27" cy="19" r="0.6" fill="#4E342E" opacity="0.6" />
  <circle cx="31" cy="17" r="0.9" fill="#6D4C41" opacity="0.7" />
  
  <circle cx="21" cy="23" r="1" fill="#5D4037" opacity="0.8" />
  <circle cx="25" cy="21" r="0.7" fill="#4E342E" opacity="0.7" />
  <circle cx="29" cy="25" r="0.8" fill="#6D4C41" opacity="0.6" />
  <circle cx="18" cy="27" r="0.9" fill="#5D4037" opacity="0.8" />
  <circle cx="22" cy="29" r="0.6" fill="#4E342E" opacity="0.7" />
  <circle cx="26" cy="31" r="1.1" fill="#6D4C41" opacity="0.6" />
  <circle cx="30" cy="29" r="0.5" fill="#5D4037" opacity="0.8" />
  
  <!-- Lava flow streams -->
  <path d="M2 1 Q4 3 3 5 Q5 7 4 9 Q6 11 5 13 Q7 15 6 17" stroke="#FF8F00" stroke-width="0.8" fill="none" opacity="0.6" />
  <path d="M8 2 Q10 4 9 6 Q11 8 10 10 Q12 12 11 14 Q13 16 12 18" stroke="#FFAB40" stroke-width="0.6" fill="none" opacity="0.7" />
  <path d="M1 18 Q3 20 2 22 Q4 24 3 26 Q5 28 4 30 Q6 32 5 34" stroke="#FF8F00" stroke-width="0.8" fill="none" opacity="0.6" />
  <path d="M7 19 Q9 21 8 23 Q10 25 9 27 Q11 29 10 31 Q12 33 11 35" stroke="#FFAB40" stroke-width="0.6" fill="none" opacity="0.7" />
  
  <!-- Cave floor cracks and fissures -->
  <path d="M17 4 L19 6 L18 8 L20 10" stroke="#1C1C1C" stroke-width="0.5" fill="none" opacity="0.8" />
  <path d="M23 2 L25 4 L24 6 L26 8 L25 10" stroke="#1C1C1C" stroke-width="0.4" fill="none" opacity="0.7" />
  <path d="M29 5 L31 7 L30 9" stroke="#1C1C1C" stroke-width="0.3" fill="none" opacity="0.6" />
  
  <path d="M18 14 L20 16 L19 18 L21 20" stroke="#1C1C1C" stroke-width="0.5" fill="none" opacity="0.8" />
  <path d="M24 12 L26 14 L25 16 L27 18 L26 20" stroke="#1C1C1C" stroke-width="0.4" fill="none" opacity="0.7" />
  <path d="M30 15 L32 17 L31 19" stroke="#1C1C1C" stroke-width="0.3" fill="none" opacity="0.6" />
  
  <path d="M17 24 L19 26 L18 28 L20 30" stroke="#1C1C1C" stroke-width="0.5" fill="none" opacity="0.8" />
  <path d="M23 22 L25 24 L24 26 L26 28 L25 30" stroke="#1C1C1C" stroke-width="0.4" fill="none" opacity="0.7" />
  <path d="M29 25 L31 27 L30 29 L32 31" stroke="#1C1C1C" stroke-width="0.3" fill="none" opacity="0.6" />
</svg>