<svg width="32" height="32" viewBox="0 0 32 32" xmlns="http://www.w3.org/2000/svg">
  <defs>
    <radialGradient id="lavaCore" cx="50%" cy="50%" r="70%">
      <stop offset="0%" stop-color="#ffff00"/>
      <stop offset="20%" stop-color="#ff8c00"/>
      <stop offset="50%" stop-color="#ff4500"/>
      <stop offset="80%" stop-color="#dc143c"/>
      <stop offset="100%" stop-color="#8b0000"/>
    </radialGradient>
    <radialGradient id="lavaFlow1" cx="30%" cy="40%" r="60%">
      <stop offset="0%" stop-color="#ff6347"/>
      <stop offset="40%" stop-color="#ff4500"/>
      <stop offset="80%" stop-color="#b22222"/>
      <stop offset="100%" stop-color="#8b0000"/>
    </radialGradient>
    <radialGradient id="lavaFlow2" cx="70%" cy="60%" r="50%">
      <stop offset="0%" stop-color="#ffa500"/>
      <stop offset="30%" stop-color="#ff6347"/>
      <stop offset="70%" stop-color="#dc143c"/>
      <stop offset="100%" stop-color="#8b0000"/>
    </radialGradient>
    <radialGradient id="lavaBubble" cx="50%" cy="50%" r="40%">
      <stop offset="0%" stop-color="#ffff00" stop-opacity="0.9"/>
      <stop offset="50%" stop-color="#ff8c00" stop-opacity="0.7"/>
      <stop offset="100%" stop-color="#ff4500" stop-opacity="0.3"/>
    </radialGradient>
    <linearGradient id="lavaStream" x1="0%" y1="0%" x2="100%" y2="100%">
      <stop offset="0%" stop-color="#ff8c00"/>
      <stop offset="25%" stop-color="#ff4500"/>
      <stop offset="50%" stop-color="#dc143c"/>
      <stop offset="75%" stop-color="#ff6347"/>
      <stop offset="100%" stop-color="#ff4500"/>
    </linearGradient>
    <filter id="lavaGlow">
      <feGaussianBlur stdDeviation="2" result="coloredBlur"/>
      <feMerge>
        <feMergeNode in="coloredBlur"/>
        <feMergeNode in="SourceGraphic"/>
      </feMerge>
    </filter>
    <filter id="bubbleEffect">
      <feGaussianBlur stdDeviation="1.5" result="coloredBlur"/>
      <feMerge>
        <feMergeNode in="coloredBlur"/>
        <feMergeNode in="SourceGraphic"/>
      </feMerge>
    </filter>
    <filter id="heatShimmer">
      <feTurbulence baseFrequency="0.8" numOctaves="3" result="noise"/>
      <feDisplacementMap in="SourceGraphic" in2="noise" scale="1.5"/>
    </filter>
  </defs>
  
  <!-- Base lava layer -->
  <rect width="32" height="32" fill="url(#lavaCore)"/>
  
  <!-- Flowing lava streams -->
  <path d="M0,8 Q8,12 16,8 Q24,4 32,8 L32,16 Q24,20 16,16 Q8,12 0,16 Z" 
        fill="url(#lavaFlow1)" filter="url(#lavaGlow)"/>
  <path d="M0,20 Q8,24 16,20 Q24,16 32,20 L32,28 Q24,32 16,28 Q8,24 0,28 Z" 
        fill="url(#lavaFlow2)" filter="url(#lavaGlow)"/>
  
  <!-- Diagonal lava streams for seamless tiling -->
  <path d="M0,0 Q8,4 16,0 Q24,4 32,0 L32,8 Q24,12 16,8 Q8,4 0,8 Z" 
        fill="url(#lavaStream)" filter="url(#lavaGlow)"/>
  <path d="M0,24 Q8,28 16,24 Q24,28 32,24 L32,32 Q24,36 16,32 Q8,28 0,32 Z" 
        fill="url(#lavaStream)" filter="url(#lavaGlow)"/>
  
  <!-- Vertical flowing patterns -->
  <path d="M4,0 Q8,8 4,16 Q0,24 4,32" stroke="url(#lavaStream)" stroke-width="3" fill="none" filter="url(#lavaGlow)"/>
  <path d="M12,0 Q16,8 12,16 Q8,24 12,32" stroke="url(#lavaFlow1)" stroke-width="2" fill="none" filter="url(#lavaGlow)"/>
  <path d="M20,0 Q24,8 20,16 Q16,24 20,32" stroke="url(#lavaFlow2)" stroke-width="2.5" fill="none" filter="url(#lavaGlow)"/>
  <path d="M28,0 Q32,8 28,16 Q24,24 28,32" stroke="url(#lavaStream)" stroke-width="2" fill="none" filter="url(#lavaGlow)"/>
  
  <!-- Lava bubbles and hot spots -->
  <circle cx="6" cy="6" r="2.5" fill="url(#lavaBubble)" filter="url(#bubbleEffect)"/>
  <circle cx="18" cy="10" r="3" fill="url(#lavaBubble)" filter="url(#bubbleEffect)"/>
  <circle cx="26" cy="14" r="2" fill="url(#lavaBubble)" filter="url(#bubbleEffect)"/>
  <circle cx="10" cy="22" r="2.8" fill="url(#lavaBubble)" filter="url(#bubbleEffect)"/>
  <circle cx="22" cy="26" r="2.2" fill="url(#lavaBubble)" filter="url(#bubbleEffect)"/>
  
  <!-- Smaller bubbles for texture -->
  <circle cx="14" cy="4" r="1.2" fill="#ffff00" opacity="0.8" filter="url(#bubbleEffect)"/>
  <circle cx="30" cy="8" r="1" fill="#ff8c00" opacity="0.7" filter="url(#bubbleEffect)"/>
  <circle cx="2" cy="12" r="1.5" fill="#ff6347" opacity="0.6" filter="url(#bubbleEffect)"/>
  <circle cx="16" cy="18" r="1.3" fill="#ffff00" opacity="0.8" filter="url(#bubbleEffect)"/>
  <circle cx="8" cy="30" r="1.1" fill="#ff8c00" opacity="0.7" filter="url(#bubbleEffect)"/>
  <circle cx="24" cy="2" r="0.8" fill="#ff4500" opacity="0.9" filter="url(#bubbleEffect)"/>
  <circle cx="32" cy="22" r="1" fill="#ff6347" opacity="0.6" filter="url(#bubbleEffect)"/>
  
  <!-- Molten rock formations -->
  <ellipse cx="4" cy="16" rx="2" ry="3" fill="#8b0000" opacity="0.8"/>
  <ellipse cx="28" cy="6" rx="1.5" ry="2" fill="#8b0000" opacity="0.7"/>
  <ellipse cx="16" cy="28" rx="2.5" ry="2" fill="#8b0000" opacity="0.9"/>
  <ellipse cx="0" cy="26" rx="1" ry="1.5" fill="#8b0000" opacity="0.6"/>
  <ellipse cx="32" cy="12" rx="1.2" ry="1.8" fill="#8b0000" opacity="0.8"/>
  
  <!-- Heat distortion overlay -->
  <rect width="32" height="32" fill="url(#lavaCore)" opacity="0.3" filter="url(#heatShimmer)"/>
  
  <!-- Seamless edge blending -->
  <!-- Top edge -->
  <path d="M0,0 Q8,2 16,0 Q24,2 32,0 L32,2 Q24,4 16,2 Q8,0 0,2 Z" 
        fill="url(#lavaStream)" opacity="0.8"/>
  <!-- Bottom edge -->
  <path d="M0,30 Q8,32 16,30 Q24,32 32,30 L32,32 Q24,30 16,32 Q8,30 0,32 Z" 
        fill="url(#lavaStream)" opacity="0.8"/>
  <!-- Left edge -->
  <path d="M0,0 Q2,8 0,16 Q2,24 0,32 L2,32 Q0,24 2,16 Q0,8 2,0 Z" 
        fill="url(#lavaFlow1)" opacity="0.7"/>
  <!-- Right edge -->
  <path d="M30,0 Q32,8 30,16 Q32,24 30,32 L32,32 Q30,24 32,16 Q30,8 32,0 Z" 
        fill="url(#lavaFlow2)" opacity="0.7"/>
  
  <!-- Glowing embers -->
  <circle cx="12" cy="8" r="0.5" fill="#ffff00" filter="url(#bubbleEffect)"/>
  <circle cx="20" cy="14" r="0.4" fill="#ff8c00" filter="url(#bubbleEffect)"/>
  <circle cx="6" cy="24" r="0.6" fill="#ff6347" filter="url(#bubbleEffect)"/>
  <circle cx="26" cy="20" r="0.3" fill="#ffff00" filter="url(#bubbleEffect)"/>
  <circle cx="14" cy="26" r="0.5" fill="#ff4500" filter="url(#bubbleEffect)"/>
</svg>