<svg width="32" height="32" viewBox="0 0 32 32" xmlns="http://www.w3.org/2000/svg">
  <defs>
    <linearGradient id="stalactiteGradient" x1="0%" y1="0%" x2="100%" y2="100%">
      <stop offset="0%" stop-color="#8e8e8e"/>
      <stop offset="30%" stop-color="#7a7a7a"/>
      <stop offset="70%" stop-color="#5a5a5a"/>
      <stop offset="100%" stop-color="#3a3a3a"/>
    </linearGradient>
    <linearGradient id="mineralDeposit" x1="0%" y1="0%" x2="100%" y2="100%">
      <stop offset="0%" stop-color="#d4af37"/>
      <stop offset="50%" stop-color="#b8860b"/>
      <stop offset="100%" stop-color="#8b7355"/>
    </linearGradient>
    <radialGradient id="highlight" cx="30%" cy="20%" r="40%">
      <stop offset="0%" stop-color="#ffffff" stop-opacity="0.3"/>
      <stop offset="100%" stop-color="transparent" stop-opacity="0"/>
    </radialGradient>
    <filter id="roughTexture">
      <feTurbulence baseFrequency="0.8" numOctaves="3" result="noise"/>
      <feDisplacementMap in="SourceGraphic" in2="noise" scale="1.5"/>
    </filter>
  </defs>
  
  <!-- Cave ceiling -->
  <rect width="32" height="8" fill="#2a2a2a"/>
  
  <!-- Main stalactite body -->
  <path d="M12,0 L20,0 L18,8 L16,16 L14,8 Z" fill="url(#stalactiteGradient)" filter="url(#roughTexture)"/>
  
  <!-- Secondary smaller stalactites -->
  <path d="M6,0 L10,0 L9,6 L8,12 L7,6 Z" fill="url(#stalactiteGradient)" filter="url(#roughTexture)"/>
  <path d="M22,0 L26,0 L25,5 L24,10 L23,5 Z" fill="url(#stalactiteGradient)" filter="url(#roughTexture)"/>
  
  <!-- Tiny stalactites -->
  <path d="M2,0 L4,0 L3,3 L2.5,6 Z" fill="#5a5a5a"/>
  <path d="M28,0 L30,0 L29,4 L28.5,7 Z" fill="#5a5a5a"/>
  
  <!-- Mineral deposits and staining -->
  <ellipse cx="15" cy="4" rx="2" ry="1" fill="url(#mineralDeposit)" opacity="0.6"/>
  <ellipse cx="17" cy="8" rx="1.5" ry="0.8" fill="#d4af37" opacity="0.4"/>
  <ellipse cx="8" cy="3" rx="1" ry="0.5" fill="url(#mineralDeposit)" opacity="0.5"/>
  
  <!-- Water droplets -->
  <circle cx="16" cy="16" r="0.8" fill="#87ceeb" opacity="0.8"/>
  <circle cx="8" cy="12" r="0.5" fill="#87ceeb" opacity="0.7"/>
  <circle cx="24" cy="10" r="0.4" fill="#87ceeb" opacity="0.6"/>
  
  <!-- Highlights and texture -->
  <ellipse cx="14" cy="6" rx="3" ry="8" fill="url(#highlight)"/>
  <ellipse cx="8" cy="4" rx="1.5" ry="4" fill="url(#highlight)"/>
  
  <!-- Ridges and texture lines -->
  <path d="M13,2 Q15,6 14,10 Q16,14 15,16" stroke="#4a4a4a" stroke-width="0.5" fill="none"/>
  <path d="M17,2 Q16,6 17,10 Q15,14 16,16" stroke="#4a4a4a" stroke-width="0.5" fill="none"/>
  <path d="M7,1 Q8,4 7.5,8 Q8.5,10 8,12" stroke="#4a4a4a" stroke-width="0.3" fill="none"/>
  
  <!-- Moss and organic growth -->
  <circle cx="11" cy="12" r="0.5" fill="#228b22" opacity="0.6"/>
  <circle cx="19" cy="14" r="0.3" fill="#32cd32" opacity="0.5"/>
</svg>