<svg width="32" height="32" viewBox="0 0 32 32" xmlns="http://www.w3.org/2000/svg">
  <defs>
    <linearGradient id="crystalGradient" x1="0%" y1="0%" x2="100%" y2="100%">
      <stop offset="0%" stop-color="#e6e6fa"/>
      <stop offset="30%" stop-color="#dda0dd"/>
      <stop offset="60%" stop-color="#9370db"/>
      <stop offset="100%" stop-color="#4b0082"/>
    </linearGradient>
    <linearGradient id="crystalFace1" x1="0%" y1="0%" x2="100%" y2="100%">
      <stop offset="0%" stop-color="#f0f8ff"/>
      <stop offset="50%" stop-color="#e6e6fa"/>
      <stop offset="100%" stop-color="#dda0dd"/>
    </linearGradient>
    <linearGradient id="crystalFace2" x1="100%" y1="0%" x2="0%" y2="100%">
      <stop offset="0%" stop-color="#9370db"/>
      <stop offset="50%" stop-color="#8a2be2"/>
      <stop offset="100%" stop-color="#4b0082"/>
    </linearGradient>
    <radialGradient id="crystalGlow" cx="50%" cy="50%" r="80%">
      <stop offset="0%" stop-color="#da70d6" stop-opacity="0.8"/>
      <stop offset="50%" stop-color="#9370db" stop-opacity="0.4"/>
      <stop offset="100%" stop-color="transparent" stop-opacity="0"/>
    </radialGradient>
    <radialGradient id="innerLight" cx="30%" cy="20%" r="40%">
      <stop offset="0%" stop-color="#ffffff" stop-opacity="0.9"/>
      <stop offset="50%" stop-color="#f0f8ff" stop-opacity="0.5"/>
      <stop offset="100%" stop-color="transparent" stop-opacity="0"/>
    </radialGradient>
    <filter id="crystalGlowEffect">
      <feGaussianBlur stdDeviation="2" result="coloredBlur"/>
      <feMerge>
        <feMergeNode in="coloredBlur"/>
        <feMergeNode in="SourceGraphic"/>
      </feMerge>
    </filter>
    <filter id="sparkle">
      <feGaussianBlur stdDeviation="1" result="coloredBlur"/>
      <feMerge>
        <feMergeNode in="coloredBlur"/>
        <feMergeNode in="SourceGraphic"/>
      </feMerge>
    </filter>
  </defs>
  
  <!-- Cave floor base -->
  <rect width="32" height="32" fill="#2a2a2a"/>
  
  <!-- Crystal cluster base -->
  <ellipse cx="16" cy="28" rx="8" ry="4" fill="#3a3a3a"/>
  
  <!-- Main large crystal -->
  <path d="M16,8 L12,24 L20,24 Z" fill="url(#crystalFace1)"/>
  <path d="M16,8 L20,24 L24,20 L20,12 Z" fill="url(#crystalFace2)"/>
  <path d="M16,8 L8,20 L12,24 Z" fill="url(#crystalGradient)"/>
  
  <!-- Secondary crystals -->
  <path d="M8,12 L6,22 L10,22 Z" fill="url(#crystalFace1)"/>
  <path d="M8,12 L10,22 L12,18 L10,14 Z" fill="url(#crystalFace2)"/>
  
  <path d="M24,14 L22,24 L26,24 Z" fill="url(#crystalFace1)"/>
  <path d="M24,14 L26,24 L28,20 L26,16 Z" fill="url(#crystalFace2)"/>
  
  <!-- Small crystal formations -->
  <path d="M4,18 L3,26 L5,26 Z" fill="url(#crystalGradient)"/>
  <path d="M28,16 L27,24 L29,24 Z" fill="url(#crystalGradient)"/>
  <path d="M12,6 L11,12 L13,12 Z" fill="url(#crystalFace1)"/>
  <path d="M20,6 L19,12 L21,12 Z" fill="url(#crystalFace1)"/>
  
  <!-- Crystal internal light -->
  <path d="M16,10 L14,22 L18,22 Z" fill="url(#innerLight)"/>
  <path d="M8,14 L7,20 L9,20 Z" fill="url(#innerLight)"/>
  <path d="M24,16 L23,22 L25,22 Z" fill="url(#innerLight)"/>
  
  <!-- Magical glow around crystals -->
  <ellipse cx="16" cy="16" rx="12" ry="10" fill="url(#crystalGlow)" filter="url(#crystalGlowEffect)"/>
  
  <!-- Crystal facet highlights -->
  <path d="M16,8 L14,12 L16,16 L18,12 Z" fill="#ffffff" opacity="0.6"/>
  <path d="M8,12 L7,15 L8,18 L9,15 Z" fill="#ffffff" opacity="0.5"/>
  <path d="M24,14 L23,17 L24,20 L25,17 Z" fill="#ffffff" opacity="0.5"/>
  
  <!-- Sparkle effects -->
  <circle cx="14" cy="10" r="0.5" fill="#ffffff" filter="url(#sparkle)"/>
  <circle cx="18" cy="12" r="0.4" fill="#f0f8ff" filter="url(#sparkle)"/>
  <circle cx="6" cy="16" r="0.3" fill="#ffffff" filter="url(#sparkle)"/>
  <circle cx="26" cy="18" r="0.4" fill="#f0f8ff" filter="url(#sparkle)"/>
  <circle cx="16" cy="6" r="0.3" fill="#ffffff" filter="url(#sparkle)"/>
  
  <!-- Light rays -->
  <path d="M16,4 L16,0" stroke="#da70d6" stroke-width="1" opacity="0.6" filter="url(#sparkle)"/>
  <path d="M10,8 L6,4" stroke="#9370db" stroke-width="0.8" opacity="0.5" filter="url(#sparkle)"/>
  <path d="M22,8 L26,4" stroke="#9370db" stroke-width="0.8" opacity="0.5" filter="url(#sparkle)"/>
  <path d="M4,16 L0,16" stroke="#da70d6" stroke-width="0.6" opacity="0.4" filter="url(#sparkle)"/>
  <path d="M28,18 L32,18" stroke="#da70d6" stroke-width="0.6" opacity="0.4" filter="url(#sparkle)"/>
  
  <!-- Crystal base connection -->
  <ellipse cx="16" cy="24" rx="4" ry="2" fill="#4b0082" opacity="0.8"/>
  <ellipse cx="8" cy="22" rx="2" ry="1" fill="#4b0082" opacity="0.7"/>
  <ellipse cx="24" cy="24" rx="2.5" ry="1.5" fill="#4b0082" opacity="0.7"/>
  
  <!-- Ambient magical particles -->
  <circle cx="6" cy="8" r="0.2" fill="#da70d6" opacity="0.7" filter="url(#sparkle)"/>
  <circle cx="26" cy="10" r="0.2" fill="#9370db" opacity="0.6" filter="url(#sparkle)"/>
  <circle cx="12" cy="4" r="0.15" fill="#da70d6" opacity="0.8" filter="url(#sparkle)"/>
  <circle cx="20" cy="4" r="0.15" fill="#9370db" opacity="0.7" filter="url(#sparkle)"/>
</svg>