<svg width="40" height="40" viewBox="0 0 40 40" xmlns="http://www.w3.org/2000/svg">
  <!-- Inverted corner shoreline - water in corner, grass surrounding -->
  <defs>
    <!-- Radial gradient from water (center corner) to grass (edges) -->
    <radialGradient id="invertedCornerGradient" cx="0%" cy="0%" r="70%">
      <stop offset="0%" style="stop-color:#4a90e2;stop-opacity:1"/>
      <stop offset="30%" style="stop-color:#5a8bc7;stop-opacity:1"/>
      <stop offset="50%" style="stop-color:#6b8e5a;stop-opacity:1"/>
      <stop offset="70%" style="stop-color:#4a7c59;stop-opacity:1"/>
      <stop offset="100%" style="stop-color:#4a7c59;stop-opacity:1"/>
    </radialGradient>
    
    <!-- Shore transition gradient -->
    <radialGradient id="invertedShoreTransition" cx="0%" cy="0%" r="60%">
      <stop offset="0%" style="stop-color:#89ac78;stop-opacity:0.4"/>
      <stop offset="50%" style="stop-color:#7a9d69;stop-opacity:0.6"/>
      <stop offset="100%" style="stop-color:#6b8e5a;stop-opacity:0.8"/>
    </radialGradient>
    
    <!-- Wet sand gradient -->
    <radialGradient id="invertedWetSandGradient" cx="0%" cy="0%" r="50%">
      <stop offset="0%" style="stop-color:#9cc382;stop-opacity:0.3"/>
      <stop offset="100%" style="stop-color:#8db373;stop-opacity:0.7"/>
    </radialGradient>
    
    <!-- Seamless grass pattern -->
    <pattern id="seamlessGrassPattern" patternUnits="userSpaceOnUse" width="6" height="6">
      <rect width="6" height="6" fill="#4a7c59"/>
      <rect x="0" y="0" width="3" height="3" fill="#5a8c69" opacity="0.15"/>
      <rect x="3" y="3" width="3" height="3" fill="#5a8c69" opacity="0.15"/>
      <rect x="1" y="1" width="2" height="2" fill="#6a9c79" opacity="0.1"/>
      <rect x="4" y="4" width="2" height="2" fill="#6a9c79" opacity="0.1"/>
    </pattern>
    
    <!-- Water pattern -->
    <pattern id="waterPattern" patternUnits="userSpaceOnUse" width="8" height="8">
      <rect width="8" height="8" fill="#4a90e2"/>
      <circle cx="2" cy="2" r="1" fill="#5a9ff2" opacity="0.2"/>
      <circle cx="6" cy="6" r="1" fill="#5a9ff2" opacity="0.2"/>
      <circle cx="2" cy="6" r="0.8" fill="#6aafff" opacity="0.15"/>
      <circle cx="6" cy="2" r="0.8" fill="#6aafff" opacity="0.15"/>
    </pattern>
    
    <!-- Ripple gradient -->
    <radialGradient id="rippleGradient" cx="50%" cy="50%" r="50%">
      <stop offset="0%" style="stop-color:#ffffff;stop-opacity:0.3"/>
      <stop offset="70%" style="stop-color:#ffffff;stop-opacity:0.1"/>
      <stop offset="100%" style="stop-color:#ffffff;stop-opacity:0"/>
    </radialGradient>
    
    <!-- Foam gradient -->
    <radialGradient id="foamGradient" cx="50%" cy="50%" r="50%">
      <stop offset="0%" style="stop-color:#ffffff;stop-opacity:0.8"/>
      <stop offset="60%" style="stop-color:#ffffff;stop-opacity:0.4"/>
      <stop offset="100%" style="stop-color:#ffffff;stop-opacity:0"/>
    </radialGradient>
    
    <!-- Reflection gradient -->
    <radialGradient id="reflectionGradient" cx="0%" cy="0%" r="70%">
      <stop offset="0%" style="stop-color:#ffffff;stop-opacity:0.2"/>
      <stop offset="30%" style="stop-color:#ffffff;stop-opacity:0.2"/>
      <stop offset="70%" style="stop-color:#ffffff;stop-opacity:0.1"/>
      <stop offset="100%" style="stop-color:#ffffff;stop-opacity:0"/>
    </radialGradient>
  </defs>
  
  <!-- Base radial gradient -->
  <rect x="0" y="0" width="40" height="40" fill="url(#invertedCornerGradient)"/>
  
  <!-- Grass texture overlay in outer areas -->
  <path d="M15,0 L40,0 L40,40 L0,40 L0,15 Q7.5,7.5 15,0" fill="url(#seamlessGrassPattern)" opacity="0.9"/>
  
  <!-- Water texture overlay in corner -->
  <path d="M0,0 Q10,0 20,10 Q0,10 0,20 Z" fill="url(#waterPattern)" opacity="0.8"/>
  
  <!-- Natural curved shoreline edge with soft transition -->
  <path d="M0,18 Q8,8 18,0 L20,2 Q10,10 2,20 Z" 
        fill="url(#invertedShoreTransition)" opacity="0.7"/>
  
  <!-- Wet sand/mud with natural curved variation -->
  <path d="M0,16 Q6,6 16,0 L18,2 Q8,8 2,18 Z" 
        fill="url(#invertedWetSandGradient)" opacity="0.6"/>
  
  <!-- Subtle water ripples in water corner -->
  <g opacity="0.3">
    <ellipse cx="8" cy="8" rx="6" ry="1.2" fill="url(#rippleGradient)" opacity="0.4" transform="rotate(45 8 8)"/>
    <ellipse cx="5" cy="5" rx="4" ry="1" fill="url(#rippleGradient)" opacity="0.3" transform="rotate(45 5 5)"/>
    <ellipse cx="12" cy="12" rx="8" ry="1.5" fill="url(#rippleGradient)" opacity="0.2" transform="rotate(45 12 12)"/>
  </g>
  
  <!-- Natural foam/bubbles along curved shoreline -->
  <g opacity="0.4">
    <circle cx="12" cy="8" r="0.6" fill="url(#foamGradient)"/>
    <circle cx="8" cy="12" r="0.4" fill="url(#foamGradient)"/>
    <circle cx="15" cy="5" r="0.5" fill="url(#foamGradient)"/>
    <circle cx="5" cy="15" r="0.3" fill="url(#foamGradient)"/>
    <circle cx="10" cy="10" r="0.4" fill="url(#foamGradient)"/>
  </g>
  
  <!-- Scattered pebbles with natural placement along curve -->
  <g opacity="0.25">
    <ellipse cx="14" cy="6" rx="0.3" ry="0.2" fill="#7a6b5d" transform="rotate(30 14 6)"/>
    <ellipse cx="6" cy="14" rx="0.2" ry="0.15" fill="#8b7d6f" transform="rotate(30 6 14)"/>
    <ellipse cx="11" cy="9" rx="0.4" ry="0.25" fill="#7a6b5d" transform="rotate(45 11 9)"/>
    <ellipse cx="16" cy="4" rx="0.25" ry="0.2" fill="#8b7d6f" transform="rotate(30 16 4)"/>
    <ellipse cx="4" cy="16" rx="0.3" ry="0.2" fill="#7a6b5d" transform="rotate(30 4 16)"/>
  </g>
  
  <!-- Grass blades extending naturally toward curved shore -->
  <g opacity="0.5">
    <path d="M20,8 Q20.5,5.5 21,8" stroke="#5a8c69" stroke-width="0.3" fill="none"/>
    <path d="M8,20 Q8.5,17.5 9,20" stroke="#5a8c69" stroke-width="0.3" fill="none"/>
    <path d="M25,12 Q25.5,9.5 26,12" stroke="#5a8c69" stroke-width="0.3" fill="none"/>
    <path d="M12,25 Q12.5,22.5 13,25" stroke="#5a8c69" stroke-width="0.3" fill="none"/>
    <path d="M18,15 Q18.5,12.5 19,15" stroke="#5a8c69" stroke-width="0.3" fill="none"/>
    <path d="M15,18 Q15.5,15.5 16,18" stroke="#5a8c69" stroke-width="0.3" fill="none"/>
  </g>
  
  <!-- Soft water reflections in water corner -->
  <g opacity="0.15">
    <ellipse cx="8" cy="8" rx="6" ry="0.8" fill="url(#reflectionGradient)" transform="rotate(45 8 8)"/>
    <ellipse cx="5" cy="5" rx="4" ry="0.6" fill="url(#reflectionGradient)" transform="rotate(45 5 5)"/>
    <ellipse cx="12" cy="12" rx="8" ry="1" fill="url(#reflectionGradient)" transform="rotate(45 12 12)"/>
  </g>
  
  <!-- Subtle flower details in grass areas -->
  <circle cx="25" cy="15" r="0.4" fill="#ffeb3b" opacity="0.4"/>
  <circle cx="15" cy="25" r="0.3" fill="#ff9800" opacity="0.3"/>
  <circle cx="30" cy="8" r="0.3" fill="#e91e63" opacity="0.3"/>
  <circle cx="8" cy="30" r="0.3" fill="#2196f3" opacity="0.3"/>
  <circle cx="35" cy="20" r="0.2" fill="#4caf50" opacity="0.4"/>
  <circle cx="20" cy="35" r="0.2" fill="#9c27b0" opacity="0.4"/>
</svg>