<svg width="50" height="50" viewBox="0 0 50 50" xmlns="http://www.w3.org/2000/svg">
  <!-- Colorful Kid-Friendly Water Tile -->
  <!-- Base water color - bright turquoise -->
  <rect width="50" height="50" fill="#50E3C2"/>
  
  <!-- Animated water effect layers -->
  <rect width="50" height="50" fill="url(#waterGradient)"/>
  
  <!-- Water ripples and waves -->
  <g opacity="0.6">
    <!-- Large waves -->
    <path d="M0,20 Q12.5,15 25,20 T50,20 L50,25 Q37.5,30 25,25 T0,25 Z" fill="#00CED1" opacity="0.4"/>
    <path d="M0,30 Q12.5,25 25,30 T50,30 L50,35 Q37.5,40 25,35 T0,35 Z" fill="#40E0D0" opacity="0.3"/>
    
    <!-- Medium waves -->
    <path d="M0,10 Q8.33,7 16.67,10 T33.33,10 T50,10 L50,15 Q41.67,18 33.33,15 T16.67,15 T0,15 Z" fill="#48D1CC" opacity="0.5"/>
    <path d="M0,40 Q8.33,37 16.67,40 T33.33,40 T50,40 L50,45 Q41.67,48 33.33,45 T16.67,45 T0,45 Z" fill="#20B2AA" opacity="0.4"/>
  </g>
  
  <!-- Sparkles and bubbles -->
  <g opacity="0.8">
    <!-- Large bubbles -->
    <circle cx="12" cy="15" r="2" fill="#FFFFFF" opacity="0.6"/>
    <circle cx="12" cy="15" r="1.5" fill="#E0FFFF" opacity="0.4"/>
    
    <circle cx="35" cy="25" r="1.8" fill="#FFFFFF" opacity="0.5"/>
    <circle cx="35" cy="25" r="1.3" fill="#E0FFFF" opacity="0.3"/>
    
    <circle cx="20" cy="38" r="1.5" fill="#FFFFFF" opacity="0.7"/>
    <circle cx="20" cy="38" r="1" fill="#E0FFFF" opacity="0.5"/>
    
    <!-- Medium bubbles -->
    <circle cx="8" cy="32" r="1" fill="#FFFFFF" opacity="0.6"/>
    <circle cx="42" cy="12" r="1.2" fill="#FFFFFF" opacity="0.5"/>
    <circle cx="28" cy="8" r="0.8" fill="#FFFFFF" opacity="0.7"/>
    <circle cx="45" cy="35" r="1" fill="#FFFFFF" opacity="0.6"/>
    
    <!-- Small bubbles -->
    <circle cx="15" cy="5" r="0.5" fill="#FFFFFF" opacity="0.8"/>
    <circle cx="38" cy="18" r="0.6" fill="#FFFFFF" opacity="0.7"/>
    <circle cx="5" cy="45" r="0.4" fill="#FFFFFF" opacity="0.9"/>
    <circle cx="32" cy="42" r="0.5" fill="#FFFFFF" opacity="0.8"/>
    <circle cx="48" cy="8" r="0.3" fill="#FFFFFF" opacity="0.9"/>
    <circle cx="22" cy="22" r="0.4" fill="#FFFFFF" opacity="0.8"/>
  </g>
  
  <!-- Water surface highlights -->
  <g opacity="0.4">
    <ellipse cx="25" cy="12" rx="8" ry="2" fill="#FFFFFF" opacity="0.3"/>
    <ellipse cx="15" cy="28" rx="6" ry="1.5" fill="#FFFFFF" opacity="0.4"/>
    <ellipse cx="38" cy="35" rx="7" ry="2" fill="#FFFFFF" opacity="0.3"/>
  </g>
  
  <!-- Underwater plants/seaweed -->
  <g opacity="0.5">
    <path d="M5,50 Q7,45 5,40 Q3,35 5,30" stroke="#2E8B57" stroke-width="1.5" fill="none" stroke-linecap="round"/>
    <path d="M10,50 Q12,44 10,38 Q8,32 10,26" stroke="#3CB371" stroke-width="1.2" fill="none" stroke-linecap="round"/>
    
    <path d="M40,50 Q42,46 40,42 Q38,38 40,34" stroke="#2E8B57" stroke-width="1.3" fill="none" stroke-linecap="round"/>
    <path d="M45,50 Q47,45 45,40 Q43,35 45,30" stroke="#3CB371" stroke-width="1" fill="none" stroke-linecap="round"/>
  </g>
  
  <!-- Magical sparkles -->
  <g opacity="0.7">
    <path d="M18 6 L20 8 L18 10 L16 8 Z" fill="#FFD700"/>
    <path d="M42 28 L44 30 L42 32 L40 30 Z" fill="#FFFFFF"/>
    <path d="M8 18 L10 20 L8 22 L6 20 Z" fill="#50E3C2"/>
    <path d="M35 45 L37 47 L35 49 L33 47 Z" fill="#FFD700"/>
  </g>
  
  <defs>
    <radialGradient id="waterGradient" cx="50%" cy="30%" r="70%">
      <stop offset="0%" style="stop-color:#87CEEB;stop-opacity:0.3" />
      <stop offset="40%" style="stop-color:#50E3C2;stop-opacity:0.1" />
      <stop offset="100%" style="stop-color:#008B8B;stop-opacity:0.4" />
    </radialGradient>
  </defs>
</svg>