<svg width="32" height="32" viewBox="0 0 32 32" xmlns="http://www.w3.org/2000/svg">
  <defs>
    <linearGradient id="caveFloorGradient" x1="0%" y1="0%" x2="100%" y2="100%">
      <stop offset="0%" stop-color="#4a4a4a"/>
      <stop offset="30%" stop-color="#3a3a3a"/>
      <stop offset="70%" stop-color="#2d2d2d"/>
      <stop offset="100%" stop-color="#1a1a1a"/>
    </linearGradient>
    <radialGradient id="rockTexture" cx="50%" cy="50%" r="50%">
      <stop offset="0%" stop-color="#5a5a5a" stop-opacity="0.8"/>
      <stop offset="100%" stop-color="#2a2a2a" stop-opacity="0.9"/>
    </radialGradient>
    <filter id="roughness">
      <feTurbulence baseFrequency="0.9" numOctaves="4" result="noise"/>
      <feDisplacementMap in="SourceGraphic" in2="noise" scale="2"/>
    </filter>
  </defs>
  
  <!-- Base floor -->
  <rect width="32" height="32" fill="url(#caveFloorGradient)"/>
  
  <!-- Rocky patches -->
  <circle cx="8" cy="8" r="5" fill="url(#rockTexture)" filter="url(#roughness)"/>
  <circle cx="24" cy="12" r="4" fill="#3d3d3d" opacity="0.8"/>
  <circle cx="16" cy="24" r="6" fill="url(#rockTexture)" filter="url(#roughness)"/>
  <circle cx="6" cy="26" r="3" fill="#2a2a2a" opacity="0.9"/>
  
  <!-- Small stones and debris -->
  <circle cx="12" cy="6" r="1.5" fill="#5a5a5a"/>
  <circle cx="28" cy="8" r="1" fill="#4a4a4a"/>
  <circle cx="20" cy="16" r="1.2" fill="#3a3a3a"/>
  <circle cx="4" cy="18" r="0.8" fill="#6a6a6a"/>
  <circle cx="30" cy="28" r="1.3" fill="#2d2d2d"/>
  <circle cx="14" cy="30" r="1" fill="#4d4d4d"/>
  
  <!-- Cracks and crevices -->
  <path d="M2,10 Q8,12 14,8 T26,14" stroke="#1a1a1a" stroke-width="1" fill="none" opacity="0.7"/>
  <path d="M18,2 Q22,8 28,6 T32,12" stroke="#0f0f0f" stroke-width="0.8" fill="none" opacity="0.6"/>
  <path d="M0,24 Q6,26 12,22 T24,28" stroke="#1a1a1a" stroke-width="1.2" fill="none" opacity="0.8"/>
  
  <!-- Subtle highlights -->
  <circle cx="10" cy="4" r="0.5" fill="#7a7a7a" opacity="0.6"/>
  <circle cx="26" cy="20" r="0.7" fill="#6a6a6a" opacity="0.5"/>
</svg>