<svg width="40" height="40" viewBox="0 0 40 40" xmlns="http://www.w3.org/2000/svg">
  <!-- Seamless base grass color -->
  <rect width="40" height="40" fill="#4a7c59"/>
  
  <!-- Seamless grass texture pattern -->
  <rect x="0" y="0" width="40" height="40" fill="url(#seamlessGrassPattern)"/>
  
  <!-- Distributed grass blade details for seamless tiling -->
  <g opacity="0.7">
    <!-- Top edge blades -->
    <path d="M2,38 Q3,33 4,38" stroke="#5a8c69" stroke-width="0.6" fill="none"/>
    <path d="M8,37 Q9,32 10,37" stroke="#5a8c69" stroke-width="0.6" fill="none"/>
    <path d="M14,38 Q15,33 16,38" stroke="#5a8c69" stroke-width="0.6" fill="none"/>
    <path d="M20,37 Q21,32 22,37" stroke="#5a8c69" stroke-width="0.6" fill="none"/>
    <path d="M26,38 Q27,33 28,38" stroke="#5a8c69" stroke-width="0.6" fill="none"/>
    <path d="M32,37 Q33,32 34,37" stroke="#5a8c69" stroke-width="0.6" fill="none"/>
    <path d="M38,38 Q39,33 40,38" stroke="#5a8c69" stroke-width="0.6" fill="none"/>
    
    <!-- Middle section blades -->
    <path d="M1,28 Q2,23 3,28" stroke="#5a8c69" stroke-width="0.5" fill="none"/>
    <path d="M7,26 Q8,21 9,26" stroke="#5a8c69" stroke-width="0.5" fill="none"/>
    <path d="M13,29 Q14,24 15,29" stroke="#5a8c69" stroke-width="0.5" fill="none"/>
    <path d="M19,27 Q20,22 21,27" stroke="#5a8c69" stroke-width="0.5" fill="none"/>
    <path d="M25,28 Q26,23 27,28" stroke="#5a8c69" stroke-width="0.5" fill="none"/>
    <path d="M31,26 Q32,21 33,26" stroke="#5a8c69" stroke-width="0.5" fill="none"/>
    <path d="M37,29 Q38,24 39,29" stroke="#5a8c69" stroke-width="0.5" fill="none"/>
    
    <!-- Lower section blades -->
    <path d="M3,18 Q4,13 5,18" stroke="#5a8c69" stroke-width="0.5" fill="none"/>
    <path d="M9,16 Q10,11 11,16" stroke="#5a8c69" stroke-width="0.5" fill="none"/>
    <path d="M15,19 Q16,14 17,19" stroke="#5a8c69" stroke-width="0.5" fill="none"/>
    <path d="M21,17 Q22,12 23,17" stroke="#5a8c69" stroke-width="0.5" fill="none"/>
    <path d="M27,18 Q28,13 29,18" stroke="#5a8c69" stroke-width="0.5" fill="none"/>
    <path d="M33,16 Q34,11 35,16" stroke="#5a8c69" stroke-width="0.5" fill="none"/>
    
    <!-- Top section blades -->
    <path d="M5,8 Q6,3 7,8" stroke="#5a8c69" stroke-width="0.5" fill="none"/>
    <path d="M11,6 Q12,1 13,6" stroke="#5a8c69" stroke-width="0.5" fill="none"/>
    <path d="M17,9 Q18,4 19,9" stroke="#5a8c69" stroke-width="0.5" fill="none"/>
    <path d="M23,7 Q24,2 25,7" stroke="#5a8c69" stroke-width="0.5" fill="none"/>
    <path d="M29,8 Q30,3 31,8" stroke="#5a8c69" stroke-width="0.5" fill="none"/>
    <path d="M35,6 Q36,1 37,6" stroke="#5a8c69" stroke-width="0.5" fill="none"/>
    
    <!-- Edge continuation for seamless tiling -->
    <path d="M0,15 Q1,10 2,15" stroke="#5a8c69" stroke-width="0.5" fill="none"/>
    <path d="M38,25 Q39,20 40,25" stroke="#5a8c69" stroke-width="0.5" fill="none"/>
  </g>
  
  <!-- Subtle flower details distributed for seamless tiling -->
  <circle cx="12" cy="12" r="0.8" fill="#ffeb3b" opacity="0.6"/>
  <circle cx="28" cy="28" r="0.7" fill="#ff9800" opacity="0.5"/>
  <circle cx="6" cy="24" r="0.6" fill="#e91e63" opacity="0.4"/>
  <circle cx="34" cy="8" r="0.5" fill="#ffeb3b" opacity="0.5"/>
  
  <defs>
    <pattern id="seamlessGrassPattern" patternUnits="userSpaceOnUse" width="10" height="10">
      <rect width="10" height="10" fill="#4a7c59"/>
      <!-- Seamless checkerboard pattern -->
      <rect x="0" y="0" width="5" height="5" fill="#5a8c69" opacity="0.25"/>
      <rect x="5" y="5" width="5" height="5" fill="#5a8c69" opacity="0.25"/>
      <!-- Additional texture layers -->
      <rect x="2" y="2" width="3" height="3" fill="#6a9c79" opacity="0.15"/>
      <rect x="7" y="7" width="3" height="3" fill="#6a9c79" opacity="0.15"/>
      <rect x="1" y="6" width="2" height="2" fill="#7aac89" opacity="0.1"/>
      <rect x="6" y="1" width="2" height="2" fill="#7aac89" opacity="0.1"/>
    </pattern>
  </defs>
</svg>