<svg width="32" height="32" viewBox="0 0 32 32" xmlns="http://www.w3.org/2000/svg">
  <defs>
    <linearGradient id="caveWallGradient" x1="0%" y1="0%" x2="100%" y2="100%">
      <stop offset="0%" stop-color="#6a6a6a"/>
      <stop offset="25%" stop-color="#5a5a5a"/>
      <stop offset="50%" stop-color="#4a4a4a"/>
      <stop offset="75%" stop-color="#3a3a3a"/>
      <stop offset="100%" stop-color="#2a2a2a"/>
    </linearGradient>
    <radialGradient id="rockHighlight" cx="20%" cy="20%" r="60%">
      <stop offset="0%" stop-color="#8a8a8a" stop-opacity="0.8"/>
      <stop offset="50%" stop-color="#6a6a6a" stop-opacity="0.5"/>
      <stop offset="100%" stop-color="transparent" stop-opacity="0"/>
    </radialGradient>
    <linearGradient id="mineralVein" x1="0%" y1="0%" x2="100%" y2="100%">
      <stop offset="0%" stop-color="#c0c0c0"/>
      <stop offset="50%" stop-color="#a8a8a8"/>
      <stop offset="100%" stop-color="#808080"/>
    </linearGradient>
    <filter id="wallTexture">
      <feTurbulence baseFrequency="0.6" numOctaves="5" result="noise"/>
      <feDisplacementMap in="SourceGraphic" in2="noise" scale="3"/>
    </filter>
    <filter id="shadow">
      <feGaussianBlur stdDeviation="1"/>
      <feOffset dx="1" dy="1"/>
    </filter>
  </defs>
  
  <!-- Base wall surface -->
  <rect width="32" height="32" fill="url(#caveWallGradient)" filter="url(#wallTexture)"/>
  
  <!-- Rock formations and protrusions -->
  <circle cx="8" cy="8" r="4" fill="url(#rockHighlight)" filter="url(#shadow)"/>
  <circle cx="24" cy="12" r="5" fill="#5a5a5a" opacity="0.8" filter="url(#shadow)"/>
  <circle cx="16" cy="24" r="6" fill="url(#rockHighlight)" filter="url(#shadow)"/>
  <circle cx="6" cy="26" r="3" fill="#4a4a4a" opacity="0.9" filter="url(#shadow)"/>
  <circle cx="28" cy="28" r="3.5" fill="#5a5a5a" opacity="0.7" filter="url(#shadow)"/>
  
  <!-- Mineral veins -->
  <path d="M2,8 Q8,12 14,8 Q20,4 26,8 Q30,12 32,10" 
        stroke="url(#mineralVein)" stroke-width="1.5" fill="none" opacity="0.7"/>
  <path d="M0,20 Q6,24 12,20 Q18,16 24,20 Q28,24 32,22" 
        stroke="url(#mineralVein)" stroke-width="1" fill="none" opacity="0.5"/>
  <path d="M4,0 Q8,6 12,2 Q16,8 20,4 Q24,10 28,6 Q30,2 32,4" 
        stroke="#c0c0c0" stroke-width="0.8" fill="none" opacity="0.6"/>
  
  <!-- Cracks and fissures -->
  <path d="M0,14 Q4,16 8,14 Q12,12 16,14 Q20,16 24,14 Q28,12 32,14" 
        stroke="#1a1a1a" stroke-width="1.2" fill="none" opacity="0.8"/>
  <path d="M6,0 Q8,8 10,16 Q12,24 14,32" 
        stroke="#2a2a2a" stroke-width="1" fill="none" opacity="0.7"/>
  <path d="M22,0 Q24,6 26,12 Q28,18 30,24 Q32,28 32,32" 
        stroke="#1a1a1a" stroke-width="0.8" fill="none" opacity="0.6"/>
  
  <!-- Small rock details -->
  <circle cx="12" cy="6" r="1" fill="#7a7a7a"/>
  <circle cx="28" cy="8" r="0.8" fill="#6a6a6a"/>
  <circle cx="4" cy="18" r="1.2" fill="#5a5a5a"/>
  <circle cx="20" cy="16" r="0.9" fill="#6a6a6a"/>
  <circle cx="14" cy="30" r="1.1" fill="#4a4a4a"/>
  <circle cx="30" cy="20" r="0.7" fill="#7a7a7a"/>
  
  <!-- Sediment layers -->
  <rect x="0" y="10" width="32" height="1" fill="#8a8a8a" opacity="0.4"/>
  <rect x="0" y="18" width="32" height="0.8" fill="#7a7a7a" opacity="0.3"/>
  <rect x="0" y="26" width="32" height="1.2" fill="#6a6a6a" opacity="0.5"/>
  
  <!-- Moisture stains -->
  <ellipse cx="10" cy="20" rx="3" ry="6" fill="#3a3a3a" opacity="0.6"/>
  <ellipse cx="22" cy="26" rx="2" ry="4" fill="#2a2a2a" opacity="0.7"/>
  
  <!-- Moss and organic growth -->
  <circle cx="8" cy="28" r="0.8" fill="#228b22" opacity="0.6"/>
  <circle cx="16" cy="30" r="0.6" fill="#32cd32" opacity="0.5"/>
  <circle cx="26" cy="24" r="0.5" fill="#228b22" opacity="0.7"/>
</svg>