<svg width="32" height="32" viewBox="0 0 32 32" xmlns="http://www.w3.org/2000/svg">
  <defs>
    <linearGradient id="caveFloorGradient" x1="0%" y1="0%" x2="100%" y2="100%">
      <stop offset="0%" stop-color="#3E2723"/>
      <stop offset="30%" stop-color="#5D4037"/>
      <stop offset="60%" stop-color="#6D4C41"/>
      <stop offset="80%" stop-color="#795548"/>
      <stop offset="100%" stop-color="#8D6E63"/>
    </linearGradient>
    <linearGradient id="lavaEdge" x1="0%" y1="0%" x2="100%" y2="100%">
      <stop offset="0%" stop-color="#FF5722"/>
      <stop offset="20%" stop-color="#FF6F00"/>
      <stop offset="40%" stop-color="#FF8F00"/>
      <stop offset="60%" stop-color="#FFA000"/>
      <stop offset="80%" stop-color="#FFB300"/>
      <stop offset="100%" stop-color="#FFC107"/>
    </linearGradient>
    <radialGradient id="lavaGlow" cx="50%" cy="50%" r="80%">
      <stop offset="0%" stop-color="#FFEB3B" stop-opacity="0.9"/>
      <stop offset="30%" stop-color="#FFC107" stop-opacity="0.7"/>
      <stop offset="60%" stop-color="#FF8F00" stop-opacity="0.5"/>
      <stop offset="100%" stop-color="#FF5722" stop-opacity="0.3"/>
    </radialGradient>
    <radialGradient id="heatShimmer" cx="50%" cy="50%" r="60%">
      <stop offset="0%" stop-color="#ffffff" stop-opacity="0.4"/>
      <stop offset="50%" stop-color="#ffeb3b" stop-opacity="0.2"/>
      <stop offset="100%" stop-color="transparent" stop-opacity="0"/>
    </radialGradient>
    <filter id="lavaFlow">
      <feTurbulence baseFrequency="2" numOctaves="3" result="noise"/>
      <feDisplacementMap in="SourceGraphic" in2="noise" scale="2"/>
    </filter>
    <filter id="glow">
      <feGaussianBlur stdDeviation="2" result="coloredBlur"/>
      <feMerge>
        <feMergeNode in="coloredBlur"/>
        <feMergeNode in="SourceGraphic"/>
      </feMerge>
    </filter>
  </defs>
  
  <!-- Cave floor base (top half) -->
  <rect x="0" y="0" width="32" height="16" fill="url(#caveFloorGradient)"/>
  
  <!-- Lava base (bottom half) -->
  <rect x="0" y="16" width="32" height="16" fill="url(#lavaEdge)"/>
  
  <!-- Irregular molten edge -->
  <path d="M0,14 Q4,17 8,13 Q12,19 16,14 Q20,12 24,17 Q28,13 32,16 L32,19 Q28,16 24,20 Q20,15 16,17 Q12,22 8,16 Q4,20 0,18 Z" 
        fill="#D84315" filter="url(#lavaFlow)"/>
  
  <!-- Heated rock transition -->
  <path d="M0,15 Q4,18 8,14 Q12,20 16,15 Q20,13 24,18 Q28,14 32,17 L32,20 Q28,17 24,21 Q20,16 16,18 Q12,23 8,17 Q4,21 0,19 Z" 
        fill="#BF360C" opacity="0.8"/>
  
  <!-- Cave floor rock texture -->
  <g opacity="0.9">
    <circle cx="3" cy="3" r="1.5" fill="#2E2E2E" opacity="0.7"/>
    <circle cx="8" cy="2" r="1" fill="#424242" opacity="0.6"/>
    <circle cx="13" cy="4" r="1.2" fill="#2E2E2E" opacity="0.8"/>
    <circle cx="18" cy="1" r="0.8" fill="#424242" opacity="0.7"/>
    <circle cx="23" cy="3" r="1.4" fill="#2E2E2E" opacity="0.6"/>
    <circle cx="28" cy="2" r="1" fill="#424242" opacity="0.8"/>
    <circle cx="5" cy="7" r="0.9" fill="#2E2E2E" opacity="0.7"/>
    <circle cx="11" cy="8" r="1.1" fill="#424242" opacity="0.6"/>
    <circle cx="16" cy="6" r="0.7" fill="#2E2E2E" opacity="0.8"/>
    <circle cx="21" cy="9" r="1.3" fill="#424242" opacity="0.7"/>
    <circle cx="26" cy="7" r="0.8" fill="#2E2E2E" opacity="0.6"/>
    <circle cx="30" cy="8" r="1" fill="#424242" opacity="0.8"/>
  </g>
  
  <!-- Lava bubbles and flow patterns -->
  <circle cx="4" cy="20" r="2" fill="url(#lavaGlow)" filter="url(#glow)"/>
  <circle cx="12" cy="24" r="1.5" fill="url(#lavaGlow)" filter="url(#glow)"/>
  <circle cx="20" cy="22" r="1.8" fill="url(#lavaGlow)" filter="url(#glow)"/>
  <circle cx="28" cy="26" r="1.2" fill="url(#lavaGlow)" filter="url(#glow)"/>
  <circle cx="8" cy="28" r="1" fill="url(#lavaGlow)" filter="url(#glow)"/>
  <circle cx="16" cy="30" r="1.4" fill="url(#lavaGlow)" filter="url(#glow)"/>
  <circle cx="24" cy="29" r="0.9" fill="url(#lavaGlow)" filter="url(#glow)"/>
  
  <!-- Lava flow streams -->
  <path d="M0,20 Q8,18 16,21 Q24,23 32,20" stroke="#FFEB3B" stroke-width="2" fill="none" filter="url(#lavaFlow)" opacity="0.8"/>
  <path d="M0,24 Q8,26 16,23 Q24,21 32,25" stroke="#FFC107" stroke-width="1.5" fill="none" filter="url(#lavaFlow)" opacity="0.7"/>
  <path d="M0,28 Q8,30 16,27 Q24,25 32,29" stroke="#FF8F00" stroke-width="1" fill="none" filter="url(#lavaFlow)" opacity="0.6"/>
  
  <!-- Heat shimmer effects at edge -->
  <ellipse cx="6" cy="16" rx="2" ry="1" fill="url(#heatShimmer)"/>
  <ellipse cx="14" cy="17" rx="1.5" ry="0.8" fill="url(#heatShimmer)"/>
  <ellipse cx="22" cy="15" rx="2.2" ry="1.1" fill="url(#heatShimmer)"/>
  <ellipse cx="30" cy="16" rx="1.8" ry="0.9" fill="url(#heatShimmer)"/>
  
  <!-- Molten rock chunks -->
  <path d="M5,15 L7,14 L8,16 L6,17 Z" fill="#FF3D00" opacity="0.9"/>
  <path d="M13,16 L15,15 L16,17 L14,18 Z" fill="#FF6F00" opacity="0.8"/>
  <path d="M21,14 L23,13 L24,15 L22,16 Z" fill="#FF3D00" opacity="0.9"/>
  <path d="M29,15 L31,14 L32,16 L30,17 Z" fill="#FF6F00" opacity="0.8"/>
  
  <!-- Charred cave floor edges -->
  <path d="M2,12 Q4,14 6,12 Q8,15 10,13" stroke="#1C1C1C" stroke-width="1" fill="none" opacity="0.8"/>
  <path d="M14,11 Q16,13 18,11 Q20,14 22,12" stroke="#1C1C1C" stroke-width="1" fill="none" opacity="0.8"/>
  <path d="M26,12 Q28,14 30,12" stroke="#1C1C1C" stroke-width="1" fill="none" opacity="0.8"/>
  
  <!-- Lava crust formations -->
  <ellipse cx="10" cy="19" rx="1.5" ry="0.5" fill="#8D6E63" opacity="0.7"/>
  <ellipse cx="18" cy="25" rx="1.2" ry="0.4" fill="#6D4C41" opacity="0.8"/>
  <ellipse cx="26" cy="21" rx="1.8" ry="0.6" fill="#8D6E63" opacity="0.6"/>
</svg>