<svg width="40" height="40" viewBox="0 0 40 40" xmlns="http://www.w3.org/2000/svg">
  <!-- Base layers with radial gradient transition for corner -->
  <rect x="0" y="0" width="40" height="40" fill="url(#cornerShorelineGradient)"/>
  
  <!-- Grass texture overlay in top-left area -->
  <path d="M0,0 L22,0 Q22,11 11,11 Q0,11 0,22 Z" fill="url(#seamlessGrassPattern)" opacity="0.9"/>
  
  <!-- Water texture overlay in bottom-right area -->
  <path d="M18,18 Q29,18 29,7 L40,7 L40,40 L7,40 Q7,29 18,18 Z" fill="url(#waterPattern)" opacity="0.8"/>
  
  <!-- Natural curved shoreline edge with soft transition -->
  <path d="M0,20 Q9,9 20,0 Q22,2 22,4 Q13,13 4,22 Q2,22 0,20 Z" 
        fill="url(#shoreTransition)" opacity="0.7"/>
  
  <!-- Wet sand/mud with natural curved variation -->
  <path d="M2,18 Q8,8 18,2 Q20,4 20,6 Q12,12 6,20 Q4,20 2,18 Z" 
        fill="url(#wetSandGradient)" opacity="0.6"/>
  
  <!-- Subtle water ripples in water area -->
  <g opacity="0.3">
    <ellipse cx="28" cy="28" rx="1.5" ry="8" fill="url(#rippleGradient)" opacity="0.4" transform="rotate(45 28 28)"/>
    <ellipse cx="32" cy="32" rx="1.2" ry="6" fill="url(#rippleGradient)" opacity="0.3" transform="rotate(45 32 32)"/>
    <ellipse cx="25" cy="35" rx="1" ry="4" fill="url(#rippleGradient)" opacity="0.4" transform="rotate(45 25 35)"/>
  </g>
  
  <!-- Natural foam/bubbles along curved shoreline -->
  <g opacity="0.4">
    <circle cx="8" cy="12" r="0.6" fill="url(#foamGradient)"/>
    <circle cx="12" cy="8" r="0.4" fill="url(#foamGradient)"/>
    <circle cx="15" cy="15" r="0.5" fill="url(#foamGradient)"/>
    <circle cx="18" cy="10" r="0.3" fill="url(#foamGradient)"/>
    <circle cx="10" cy="18" r="0.4" fill="url(#foamGradient)"/>
  </g>
  
  <!-- Scattered pebbles with natural placement along curve -->
  <g opacity="0.25">
    <ellipse cx="10" cy="10" rx="0.2" ry="0.3" fill="#7a6b5d" transform="rotate(45 10 10)"/>
    <ellipse cx="14" cy="14" rx="0.15" ry="0.2" fill="#8b7d6f" transform="rotate(45 14 14)"/>
    <ellipse cx="16" cy="8" rx="0.25" ry="0.4" fill="#7a6b5d" transform="rotate(45 16 8)"/>
    <ellipse cx="8" cy="16" rx="0.2" ry="0.25" fill="#8b7d6f" transform="rotate(45 8 16)"/>
  </g>
  
  <!-- Grass blades extending naturally toward curved shore -->
  <g opacity="0.5">
    <path d="M6,8 Q4,6 6,6" stroke="#5a8c69" stroke-width="0.3" fill="none"/>
    <path d="M8,6 Q6,4 8,4" stroke="#5a8c69" stroke-width="0.3" fill="none"/>
    <path d="M4,12 Q2,10 4,10" stroke="#5a8c69" stroke-width="0.3" fill="none"/>
    <path d="M12,4 Q10,2 12,2" stroke="#5a8c69" stroke-width="0.3" fill="none"/>
    <path d="M10,14 Q8,12 10,12" stroke="#5a8c69" stroke-width="0.3" fill="none"/>
    <path d="M14,10 Q12,8 14,8" stroke="#5a8c69" stroke-width="0.3" fill="none"/>
  </g>
  
  <!-- Soft water reflections in water area -->
  <g opacity="0.15">
    <ellipse cx="25" cy="25" rx="0.8" ry="8" fill="url(#reflectionGradient)" transform="rotate(45 25 25)"/>
    <ellipse cx="30" cy="30" rx="0.6" ry="6" fill="url(#reflectionGradient)" transform="rotate(45 30 30)"/>
    <ellipse cx="35" cy="35" rx="0.5" ry="4" fill="url(#reflectionGradient)" transform="rotate(45 35 35)"/>
  </g>
  
  <!-- Subtle flower details in grass area -->
  <circle cx="6" cy="6" r="0.4" fill="#ffeb3b" opacity="0.4"/>
  <circle cx="12" cy="3" r="0.3" fill="#ff9800" opacity="0.3"/>
  <circle cx="3" cy="12" r="0.3" fill="#e91e63" opacity="0.3"/>
  
  <defs>
    <!-- Main corner shoreline radial gradient -->
    <radialGradient id="cornerShorelineGradient" cx="0%" cy="0%" r="70%">
      <stop offset="0%" style="stop-color:#4a7c59;stop-opacity:1"/>
      <stop offset="40%" style="stop-color:#4a7c59;stop-opacity:1"/>
      <stop offset="50%" style="stop-color:#6b8e5a;stop-opacity:1"/>
      <stop offset="60%" style="stop-color:#5a8bc7;stop-opacity:1"/>
      <stop offset="100%" style="stop-color:#4a90e2;stop-opacity:1"/>
    </radialGradient>
    
    <!-- Shore transition gradient -->
    <radialGradient id="shoreTransition" cx="0%" cy="0%" r="100%">
      <stop offset="0%" style="stop-color:#6b8e5a;stop-opacity:0.8"/>
      <stop offset="50%" style="stop-color:#7a9d69;stop-opacity:0.6"/>
      <stop offset="100%" style="stop-color:#89ac78;stop-opacity:0.4"/>
    </radialGradient>
    
    <!-- Wet sand gradient -->
    <radialGradient id="wetSandGradient" cx="0%" cy="0%" r="100%">
      <stop offset="0%" style="stop-color:#8db373;stop-opacity:0.7"/>
      <stop offset="100%" style="stop-color:#9cc382;stop-opacity:0.3"/>
    </radialGradient>
    
    <!-- Seamless grass pattern -->
    <pattern id="seamlessGrassPattern" patternUnits="userSpaceOnUse" width="6" height="6">
      <rect width="6" height="6" fill="#4a7c59"/>
      <rect x="0" y="0" width="3" height="3" fill="#5a8c69" opacity="0.15"/>
      <rect x="3" y="3" width="3" height="3" fill="#5a8c69" opacity="0.15"/>
      <rect x="1" y="1" width="2" height="2" fill="#6a9c79" opacity="0.1"/>
      <rect x="4" y="4" width="2" height="2" fill="#6a9c79" opacity="0.1"/>
    </pattern>
    
    <!-- Water pattern -->
    <pattern id="waterPattern" patternUnits="userSpaceOnUse" width="8" height="8">
      <rect width="8" height="8" fill="#4a90e2"/>
      <circle cx="2" cy="2" r="1" fill="#5a9ff2" opacity="0.2"/>
      <circle cx="6" cy="6" r="1" fill="#5a9ff2" opacity="0.2"/>
      <circle cx="2" cy="6" r="0.8" fill="#6aafff" opacity="0.15"/>
      <circle cx="6" cy="2" r="0.8" fill="#6aafff" opacity="0.15"/>
    </pattern>
    
    <!-- Ripple gradient -->
    <radialGradient id="rippleGradient" cx="50%" cy="50%" r="50%">
      <stop offset="0%" style="stop-color:#ffffff;stop-opacity:0.3"/>
      <stop offset="70%" style="stop-color:#ffffff;stop-opacity:0.1"/>
      <stop offset="100%" style="stop-color:#ffffff;stop-opacity:0"/>
    </radialGradient>
    
    <!-- Foam gradient -->
    <radialGradient id="foamGradient" cx="50%" cy="50%" r="50%">
      <stop offset="0%" style="stop-color:#ffffff;stop-opacity:0.8"/>
      <stop offset="60%" style="stop-color:#ffffff;stop-opacity:0.4"/>
      <stop offset="100%" style="stop-color:#ffffff;stop-opacity:0"/>
    </radialGradient>
    
    <!-- Reflection gradient -->
    <linearGradient id="reflectionGradient" x1="0%" y1="0%" x2="100%" y2="100%">
      <stop offset="0%" style="stop-color:#ffffff;stop-opacity:0"/>
      <stop offset="30%" style="stop-color:#ffffff;stop-opacity:0.2"/>
      <stop offset="70%" style="stop-color:#ffffff;stop-opacity:0.2"/>
      <stop offset="100%" style="stop-color:#ffffff;stop-opacity:0"/>
    </linearGradient>
  </defs>
</svg>