<svg width="32" height="32" viewBox="0 0 32 32" xmlns="http://www.w3.org/2000/svg">
  <defs>
    <radialGradient id="lavaRockGradient" cx="40%" cy="30%" r="70%">
      <stop offset="0%" stop-color="#8b0000"/>
      <stop offset="30%" stop-color="#654321"/>
      <stop offset="60%" stop-color="#2f1b14"/>
      <stop offset="100%" stop-color="#1a1a1a"/>
    </radialGradient>
    <radialGradient id="lavaGlow" cx="50%" cy="50%" r="60%">
      <stop offset="0%" stop-color="#ff4500" stop-opacity="0.8"/>
      <stop offset="40%" stop-color="#ff6347" stop-opacity="0.5"/>
      <stop offset="80%" stop-color="#dc143c" stop-opacity="0.2"/>
      <stop offset="100%" stop-color="transparent" stop-opacity="0"/>
    </radialGradient>
    <linearGradient id="moltenCracks" x1="0%" y1="0%" x2="100%" y2="100%">
      <stop offset="0%" stop-color="#ff4500"/>
      <stop offset="50%" stop-color="#ff6347"/>
      <stop offset="100%" stop-color="#8b0000"/>
    </linearGradient>
    <filter id="roughSurface">
      <feTurbulence baseFrequency="1.2" numOctaves="4" result="noise"/>
      <feDisplacementMap in="SourceGraphic" in2="noise" scale="2.5"/>
    </filter>
    <filter id="heatGlow">
      <feGaussianBlur stdDeviation="3" result="coloredBlur"/>
      <feMerge>
        <feMergeNode in="coloredBlur"/>
        <feMergeNode in="SourceGraphic"/>
      </feMerge>
    </filter>
  </defs>
  
  <!-- Cave floor base -->
  <rect width="32" height="32" fill="#2a2a2a"/>
  
  <!-- Main lava rock formation -->
  <ellipse cx="16" cy="20" rx="12" ry="8" fill="url(#lavaRockGradient)" filter="url(#roughSurface)"/>
  
  <!-- Secondary rock chunks -->
  <circle cx="8" cy="16" r="4" fill="url(#lavaRockGradient)" filter="url(#roughSurface)"/>
  <circle cx="24" cy="24" r="5" fill="#654321" opacity="0.9" filter="url(#roughSurface)"/>
  <circle cx="6" cy="28" r="3" fill="#2f1b14" filter="url(#roughSurface)"/>
  <circle cx="26" cy="12" r="3.5" fill="url(#lavaRockGradient)" filter="url(#roughSurface)"/>
  
  <!-- Molten cracks and fissures -->
  <path d="M8,12 Q12,16 16,14 Q20,12 24,16 Q28,20 30,18" 
        stroke="url(#moltenCracks)" stroke-width="2" fill="none" filter="url(#heatGlow)"/>
  <path d="M4,20 Q8,24 12,22 Q16,20 20,24 Q24,28 28,26" 
        stroke="url(#moltenCracks)" stroke-width="1.5" fill="none" filter="url(#heatGlow)"/>
  <path d="M10,8 Q14,12 18,10 Q22,8 26,12" 
        stroke="#ff4500" stroke-width="1" fill="none" filter="url(#heatGlow)"/>
  
  <!-- Hot spots and ember glow -->
  <circle cx="14" cy="18" r="1.5" fill="#ff4500" filter="url(#heatGlow)"/>
  <circle cx="20" cy="22" r="1" fill="#ff6347" filter="url(#heatGlow)"/>
  <circle cx="8" cy="14" r="0.8" fill="#ff4500" filter="url(#heatGlow)"/>
  <circle cx="26" cy="20" r="1.2" fill="#dc143c" filter="url(#heatGlow)"/>
  
  <!-- Cooled lava surface texture -->
  <ellipse cx="16" cy="20" rx="10" ry="6" fill="#2f1b14" opacity="0.6"/>
  
  <!-- Volcanic glass patches -->
  <circle cx="12" cy="16" r="0.8" fill="#000000" opacity="0.8"/>
  <circle cx="22" cy="24" r="1" fill="#1a1a1a" opacity="0.7"/>
  <circle cx="18" cy="26" r="0.6" fill="#000000" opacity="0.9"/>
  
  <!-- Heat shimmer effect -->
  <ellipse cx="16" cy="18" rx="8" ry="5" fill="url(#lavaGlow)" filter="url(#heatGlow)"/>
  
  <!-- Pumice and vesicles -->
  <circle cx="10" cy="20" r="0.4" fill="#696969" opacity="0.7"/>
  <circle cx="24" cy="18" r="0.3" fill="#808080" opacity="0.6"/>
  <circle cx="16" cy="24" r="0.5" fill="#696969" opacity="0.8"/>
  <circle cx="20" cy="16" r="0.3" fill="#a9a9a9" opacity="0.5"/>
  
  <!-- Sulfur deposits -->
  <circle cx="6" cy="24" r="0.6" fill="#ffff00" opacity="0.6"/>
  <circle cx="28" cy="16" r="0.4" fill="#ffd700" opacity="0.5"/>
  
  <!-- Ash and debris -->
  <circle cx="4" cy="30" r="0.3" fill="#696969" opacity="0.4"/>
  <circle cx="30" cy="28" r="0.4" fill="#808080" opacity="0.3"/>
  <circle cx="2" cy="14" r="0.2" fill="#a9a9a9" opacity="0.5"/>
</svg>