<svg width="64" height="64" viewBox="0 0 64 64" xmlns="http://www.w3.org/2000/svg">
  <!-- Main rock body -->
  <path d="M15 45 Q12 35 18 28 Q25 20 35 22 Q45 18 52 25 Q55 35 50 42 Q45 50 35 48 Q25 52 15 45 Z" fill="#696969" stroke="#2F4F4F" stroke-width="1.5"/>
  
  <!-- Rock face highlights -->
  <path d="M20 35 Q25 25 32 28 Q38 24 42 30 Q40 38 35 40 Q28 42 20 35 Z" fill="#808080" opacity="0.8"/>
  
  <!-- Dark crevices -->
  <path d="M25 30 Q30 32 28 38 Q26 42 22 40" fill="none" stroke="#2F4F4F" stroke-width="2" opacity="0.7"/>
  <path d="M38 28 Q42 30 40 35 Q38 38 35 36" fill="none" stroke="#2F4F4F" stroke-width="1.5" opacity="0.7"/>
  
  <!-- Surface texture spots -->
  <circle cx="22" cy="32" r="1.5" fill="#2F4F4F" opacity="0.6"/>
  <circle cx="35" cy="30" r="1" fill="#2F4F4F" opacity="0.6"/>
  <circle cx="40" cy="35" r="1.2" fill="#2F4F4F" opacity="0.6"/>
  <circle cx="28" cy="40" r="0.8" fill="#2F4F4F" opacity="0.6"/>
  
  <!-- Lighter highlights -->
  <ellipse cx="30" cy="28" rx="3" ry="2" fill="#A9A9A9" opacity="0.7"/>
  <ellipse cx="42" cy="32" rx="2" ry="1.5" fill="#A9A9A9" opacity="0.7"/>
  
  <!-- Moss patches -->
  <ellipse cx="18" cy="38" rx="2" ry="1" fill="#556B2F" opacity="0.8"/>
  <ellipse cx="45" cy="42" rx="1.5" ry="1" fill="#556B2F" opacity="0.8"/>
  
  <!-- Shadow -->
  <ellipse cx="32" cy="52" rx="15" ry="4" fill="#000000" opacity="0.3"/>
</svg>