<svg width="64" height="64" viewBox="0 0 64 64" xmlns="http://www.w3.org/2000/svg">
  <!-- Treasure box base -->
  <rect x="12" y="35" width="40" height="20" fill="#8B4513" stroke="#654321" stroke-width="1.5"/>
  
  <!-- Opened treasure box lid (rotated back) -->
  <path d="M12 35 Q12 15 32 10 Q52 15 52 35 L52 20 Q52 5 32 5 Q12 5 12 20 Z" fill="#A0522D" stroke="#654321" stroke-width="1.5" transform="rotate(-45 32 25)"/>
  
  <!-- Metal bands on base -->
  <rect x="10" y="32" width="44" height="3" fill="#C0C0C0" stroke="#808080" stroke-width="0.5"/>
  <rect x="10" y="45" width="44" height="3" fill="#C0C0C0" stroke="#808080" stroke-width="0.5"/>
  <rect x="10" y="52" width="44" height="3" fill="#C0C0C0" stroke="#808080" stroke-width="0.5"/>
  
  <!-- Vertical metal bands on base -->
  <rect x="18" y="35" width="3" height="20" fill="#C0C0C0" stroke="#808080" stroke-width="0.5"/>
  <rect x="43" y="35" width="3" height="20" fill="#C0C0C0" stroke="#808080" stroke-width="0.5"/>
  
  <!-- Treasure contents inside the box -->
  <!-- Gold coins -->
  <circle cx="20" cy="42" r="3" fill="#FFD700" stroke="#DAA520" stroke-width="0.8"/>
  <circle cx="26" cy="45" r="2.5" fill="#FFD700" stroke="#DAA520" stroke-width="0.8"/>
  <circle cx="32" cy="43" r="3" fill="#FFD700" stroke="#DAA520" stroke-width="0.8"/>
  <circle cx="38" cy="46" r="2.5" fill="#FFD700" stroke="#DAA520" stroke-width="0.8"/>
  <circle cx="44" cy="44" r="3" fill="#FFD700" stroke="#DAA520" stroke-width="0.8"/>
  
  <!-- Gems -->
  <polygon points="24,38 26,35 28,38 26,41" fill="#FF0000" stroke="#8B0000" stroke-width="0.5"/>
  <polygon points="36,39 38,36 40,39 38,42" fill="#0000FF" stroke="#000080" stroke-width="0.5"/>
  <polygon points="30,47 32,44 34,47 32,50" fill="#00FF00" stroke="#006400" stroke-width="0.5"/>
  
  <!-- Sparkling effects -->
  <g stroke="#FFD700" stroke-width="1" fill="none">
    <path d="M15 30 L17 32 M16 29 L16 33 M14 31 L18 31"/>
    <path d="M48 28 L50 30 M49 27 L49 31 M47 29 L51 29"/>
    <path d="M22 25 L24 27 M23 24 L23 28 M21 26 L25 26"/>
    <path d="M42 22 L44 24 M43 21 L43 25 M41 23 L45 23"/>
    <path d="M28 20 L30 22 M29 19 L29 23 M27 21 L31 21"/>
  </g>
  
  <!-- Magical glow effect -->
  <ellipse cx="32" cy="43" rx="15" ry="8" fill="#FFD700" opacity="0.2"/>
  <ellipse cx="32" cy="43" rx="12" ry="6" fill="#FFFF00" opacity="0.3"/>
  
  <!-- Lock mechanism (now broken/open) -->
  <rect x="28" y="38" width="8" height="6" fill="#FFD700" stroke="#DAA520" stroke-width="1" transform="rotate(15 32 41)"/>
  <circle cx="30" cy="39" r="2" fill="#B8860B" stroke="#8B6914" stroke-width="0.5"/>
  
  <!-- Decorative corners -->
  <circle cx="15" cy="50" r="2" fill="#FFD700" stroke="#DAA520" stroke-width="0.5"/>
  <circle cx="49" cy="50" r="2" fill="#FFD700" stroke="#DAA520" stroke-width="0.5"/>
  
  <!-- Wood grain on base -->
  <line x1="14" y1="37" x2="14" y2="53" stroke="#654321" stroke-width="0.5" opacity="0.6"/>
  <line x1="25" y1="37" x2="25" y2="53" stroke="#654321" stroke-width="0.5" opacity="0.6"/>
  <line x1="39" y1="37" x2="39" y2="53" stroke="#654321" stroke-width="0.5" opacity="0.6"/>
  <line x1="50" y1="37" x2="50" y2="53" stroke="#654321" stroke-width="0.5" opacity="0.6"/>
  
  <!-- Shadow -->
  <ellipse cx="32" cy="58" rx="18" ry="3" fill="#000000" opacity="0.3"/>
</svg>