<svg width="50" height="50" viewBox="0 0 50 50" xmlns="http://www.w3.org/2000/svg">
  <!-- Colorful Kid-Friendly Grass Tile -->
  <!-- Base grass color - bright and vibrant -->
  <rect width="50" height="50" fill="#7ED321"/>
  
  <!-- Gradient overlay for depth -->
  <rect width="50" height="50" fill="url(#grassGradient)"/>
  
  <!-- Colorful grass blades -->
  <g opacity="0.8">
    <!-- Top edge blades -->
    <path d="M3,47 Q4,40 5,47" stroke="#9AE456" stroke-width="1.2" fill="none" stroke-linecap="round"/>
    <path d="M10,46 Q11,38 12,46" stroke="#B8E986" stroke-width="1.2" fill="none" stroke-linecap="round"/>
    <path d="M18,47 Q19,39 20,47" stroke="#7ED321" stroke-width="1.2" fill="none" stroke-linecap="round"/>
    <path d="M25,46 Q26,37 27,46" stroke="#9AE456" stroke-width="1.2" fill="none" stroke-linecap="round"/>
    <path d="M33,47 Q34,40 35,47" stroke="#B8E986" stroke-width="1.2" fill="none" stroke-linecap="round"/>
    <path d="M41,46 Q42,38 43,46" stroke="#7ED321" stroke-width="1.2" fill="none" stroke-linecap="round"/>
    <path d="M47,47 Q48,39 49,47" stroke="#9AE456" stroke-width="1.2" fill="none" stroke-linecap="round"/>
    
    <!-- Middle section blades -->
    <path d="M2,35 Q3,28 4,35" stroke="#9AE456" stroke-width="1" fill="none" stroke-linecap="round"/>
    <path d="M9,33 Q10,25 11,33" stroke="#B8E986" stroke-width="1" fill="none" stroke-linecap="round"/>
    <path d="M16,36 Q17,28 18,36" stroke="#7ED321" stroke-width="1" fill="none" stroke-linecap="round"/>
    <path d="M24,34 Q25,26 26,34" stroke="#9AE456" stroke-width="1" fill="none" stroke-linecap="round"/>
    <path d="M31,35 Q32,27 33,35" stroke="#B8E986" stroke-width="1" fill="none" stroke-linecap="round"/>
    <path d="M39,33 Q40,25 41,33" stroke="#7ED321" stroke-width="1" fill="none" stroke-linecap="round"/>
    <path d="M46,36 Q47,28 48,36" stroke="#9AE456" stroke-width="1" fill="none" stroke-linecap="round"/>
    
    <!-- Lower section blades -->
    <path d="M4,23 Q5,15 6,23" stroke="#B8E986" stroke-width="1" fill="none" stroke-linecap="round"/>
    <path d="M12,21 Q13,13 14,21" stroke="#7ED321" stroke-width="1" fill="none" stroke-linecap="round"/>
    <path d="M19,24 Q20,16 21,24" stroke="#9AE456" stroke-width="1" fill="none" stroke-linecap="round"/>
    <path d="M27,22 Q28,14 29,22" stroke="#B8E986" stroke-width="1" fill="none" stroke-linecap="round"/>
    <path d="M34,23 Q35,15 36,23" stroke="#7ED321" stroke-width="1" fill="none" stroke-linecap="round"/>
    <path d="M42,21 Q43,13 44,21" stroke="#9AE456" stroke-width="1" fill="none" stroke-linecap="round"/>
    
    <!-- Top section blades -->
    <path d="M6,11 Q7,3 8,11" stroke="#9AE456" stroke-width="1" fill="none" stroke-linecap="round"/>
    <path d="M14,9 Q15,1 16,9" stroke="#B8E986" stroke-width="1" fill="none" stroke-linecap="round"/>
    <path d="M21,12 Q22,4 23,12" stroke="#7ED321" stroke-width="1" fill="none" stroke-linecap="round"/>
    <path d="M29,10 Q30,2 31,10" stroke="#9AE456" stroke-width="1" fill="none" stroke-linecap="round"/>
    <path d="M36,11 Q37,3 38,11" stroke="#B8E986" stroke-width="1" fill="none" stroke-linecap="round"/>
    <path d="M44,9 Q45,1 46,9" stroke="#7ED321" stroke-width="1" fill="none" stroke-linecap="round"/>
  </g>
  
  <!-- Colorful flowers scattered around -->
  <circle cx="15" cy="15" r="1.5" fill="#FF69B4"/>
  <circle cx="15" cy="15" r="0.8" fill="#FFD700"/>
  
  <circle cx="35" cy="35" r="1.2" fill="#50E3C2"/>
  <circle cx="35" cy="35" r="0.6" fill="#FFFFFF"/>
  
  <circle cx="8" cy="30" r="1" fill="#BD10E0"/>
  <circle cx="8" cy="30" r="0.5" fill="#FFD700"/>
  
  <circle cx="42" cy="12" r="1.3" fill="#F5A623"/>
  <circle cx="42" cy="12" r="0.7" fill="#FF6B35"/>
  
  <circle cx="28" cy="40" r="1.1" fill="#D0021B"/>
  <circle cx="28" cy="40" r="0.6" fill="#FFFFFF"/>
  
  <!-- Small decorative elements -->
  <circle cx="20" cy="25" r="0.5" fill="#FFD700" opacity="0.7"/>
  <circle cx="38" cy="20" r="0.5" fill="#FF69B4" opacity="0.7"/>
  <circle cx="12" cy="42" r="0.5" fill="#50E3C2" opacity="0.7"/>
  
  <defs>
    <linearGradient id="grassGradient" x1="0%" y1="0%" x2="100%" y2="100%">
      <stop offset="0%" style="stop-color:#B8E986;stop-opacity:0.3" />
      <stop offset="50%" style="stop-color:#7ED321;stop-opacity:0.1" />
      <stop offset="100%" style="stop-color:#417505;stop-opacity:0.2" />
    </linearGradient>
  </defs>
</svg>